<svg width="76" height="148" viewBox="0 0 76 148" fill="none" xmlns="http://www.w3.org/2000/svg">
<path opacity="0.3" d="M64 20H6V89H64V20Z" fill="#00FF99"/>
<path d="M11.9527 0.611299C13.8516 2.5717 15.7157 4.56152 17.5638 6.57274C18.0826 7.13706 18.5988 7.78963 19.246 8.2122C19.7809 8.56256 20.4335 8.71768 21.0593 8.78989C21.9098 8.88885 22.7763 8.83001 23.6322 8.87012C24.3249 8.90222 25.0122 8.96641 25.6996 9.06001C26.2211 9.12955 26.7827 9.18839 27.2775 9.37293C27.9114 9.61096 28.2297 10.4775 28.3072 11.1568C28.4169 12.1116 28.2377 13.0851 27.9916 14.0051C27.66 15.2354 27.1572 16.4202 26.4083 17.4606C25.7504 18.3779 24.8705 19.1883 23.8274 19.6376C23.7927 19.651 23.6884 19.6911 23.5921 19.7259C23.8007 19.651 23.2738 19.8034 23.5332 19.7473C23.4503 19.766 23.3647 19.7794 23.2818 19.7901C23.4583 19.766 23.2551 19.7901 23.2284 19.7901C23.1668 19.7927 23.1053 19.7981 23.0438 19.8008C23.0251 19.8008 22.9208 19.8034 23.0251 19.8008C22.9716 19.8008 22.9208 19.8008 22.8673 19.8008C22.7683 19.8008 22.672 19.7981 22.5731 19.7954C22.327 19.7901 22.0837 19.7847 21.8376 19.7847C19.5616 19.7981 17.1786 20.3009 15.0872 21.1969C12.4983 22.3068 10.463 24.2591 9.39319 26.8775C8.54805 28.9449 8.1549 31.1486 8.05594 33.3711C7.93559 36.0242 8.02387 38.688 8.28063 41.3304C8.35819 42.1354 8.45445 42.9405 8.5641 43.7401C8.6069 44.0637 10.1715 43.7455 10.1153 43.3256C9.7302 40.4879 9.53226 37.6236 9.55901 34.7592C9.57238 33.4995 9.60448 32.2291 9.76495 30.9775C9.89332 29.9825 10.142 29.009 10.4282 28.0516C10.7946 26.8213 11.2894 25.6285 12.0249 24.5721C12.8166 23.4381 13.8917 22.494 15.1113 21.8468C15.6194 21.5766 16.1276 21.3627 16.6705 21.1755C16.8283 21.122 16.8871 21.1032 16.9674 21.0792C17.1011 21.0391 17.2348 21.0016 17.3685 20.9642C17.4728 20.9374 17.5745 20.9107 17.6788 20.8839C17.7537 20.8652 17.8286 20.8492 17.9061 20.8304C18.08 20.7877 17.8018 20.8492 17.989 20.8117C18.9251 20.6192 19.8852 20.4533 20.84 20.44C21.8456 20.4266 22.8111 20.5042 23.7927 20.2126C25.0283 19.8436 26.1703 19.1562 27.0743 18.2362C28.0799 17.2119 28.81 15.9281 29.27 14.5748C29.5428 13.7725 29.7434 12.9434 29.8424 12.1009C29.9467 11.1943 29.936 10.1592 29.377 9.39165C28.8662 8.68826 28.0264 8.60268 27.2187 8.48232C25.9643 8.29511 24.7073 8.2015 23.4396 8.1908C22.664 8.18545 22.0168 8.19615 21.3214 7.96615C21.0781 7.88591 20.9363 7.82975 20.6929 7.66928C20.4495 7.50881 20.2276 7.3002 20.0163 7.09159C19.2086 6.28924 18.4597 5.42271 17.6868 4.58559C16.8176 3.64685 15.9404 2.71345 15.0578 1.78808C14.5122 1.21573 13.9666 0.648741 13.4156 0.0817493C13.1321 -0.20977 11.7013 0.351873 11.958 0.616647L11.9527 0.611299Z" fill="#060102"/>
<path d="M46.8066 1.09534C45.9909 7.09422 47.4057 14.3902 52.5862 18.1292C54.806 19.7312 57.649 20.6699 60.2513 21.4322C62.6798 22.1409 65.6698 22.6705 67.4457 24.6362C69.0076 26.3666 69.3633 29.3059 69.7003 31.531C70.1095 34.2296 70.3261 36.9603 70.4866 39.6829C70.7728 44.5585 70.8343 49.4421 70.853 54.3257C70.8637 57.503 71.1097 60.6723 71.313 63.8442C71.7864 71.3007 72.3293 78.7545 73.0835 86.1896C73.4071 89.3803 73.8698 92.5683 74.033 95.775C74.1774 98.6073 74.2068 101.442 74.2229 104.277C74.2924 116.066 74.0089 127.861 73.7147 139.645C73.6612 141.782 73.605 143.916 73.5489 146.053C73.5302 146.753 75.0894 146.462 75.1054 145.884C75.4558 132.902 75.7874 119.912 75.7874 106.925C75.7874 101.736 75.8195 96.5185 75.2338 91.3567C74.4127 84.1276 73.7843 76.8797 73.2761 69.6211C73.0327 66.1603 72.8107 62.6995 72.6048 59.2388C72.554 58.3722 72.5032 57.5057 72.455 56.6392C72.439 56.3343 72.4256 56.0936 72.4202 55.9063C72.3507 51.8224 72.3801 47.7385 72.2384 43.6545C72.0565 38.4606 71.8987 33.0635 70.6497 27.9954C70.3422 26.7464 69.9383 25.4279 69.1761 24.3714C68.4139 23.315 67.2264 22.633 66.071 22.1195C63.5195 20.9829 60.722 20.448 58.1064 19.4691C55.71 18.5731 53.5143 17.4552 51.8481 15.4654C49.5747 12.7534 48.5825 9.33812 48.2455 5.85594C48.0877 4.2138 48.1386 2.56096 48.3605 0.926851C48.4515 0.25288 46.8842 0.506956 46.804 1.09534H46.8066Z" fill="#060102"/>
<path d="M53.763 46.6874C54.8248 52.9939 55.7929 59.3163 56.6648 65.6522C57.5795 72.3063 58.3899 78.9739 59.0959 85.6521C59.81 92.4212 60.4171 99.2037 60.9146 105.992C61.412 112.779 61.7704 119.056 62.0459 125.596C62.3106 131.822 62.4818 138.051 62.5621 144.28C62.5728 145.052 62.5808 145.823 62.5888 146.596C62.5942 147.264 64.1454 146.943 64.1427 146.411C64.0839 140.214 63.9394 134.02 63.7041 127.829C63.4553 121.33 63.1077 114.836 62.661 108.348C62.1903 101.52 61.6099 94.6999 60.9226 87.8906C60.2406 81.1669 59.4543 74.4566 58.5584 67.757C57.7025 61.3463 56.7477 54.9489 55.6993 48.5676C55.5736 47.8 55.4453 47.0324 55.3169 46.2648C55.2233 45.7139 53.6667 46.0856 53.7657 46.6794L53.763 46.6874Z" fill="#060102"/>
<path d="M13.1134 30.5335C11.5275 37.7252 8.6845 44.6093 4.70753 50.8115C3.91054 52.0524 3.07074 53.2666 2.19083 54.4514C1.78431 54.997 1.27882 55.5266 0.981954 56.139C0.631595 56.8611 0.366812 57.6261 0.203668 58.4124C-0.41414 61.3596 0.43102 64.323 1.9635 66.8477C2.46898 67.6795 3.04399 68.5219 3.73134 69.2173C4.91614 70.4155 6.55291 71.4772 8.29936 71.3622C8.5668 71.3435 9.12579 71.1643 9.18463 70.8487C9.24614 70.5037 8.71924 70.5251 8.52133 70.5385C8.6604 70.5305 8.40634 70.5305 8.40634 70.5305C8.4839 70.5385 8.21911 70.4984 8.25388 70.5064C8.13085 70.485 8.00783 70.4529 7.89015 70.4155C7.52909 70.2978 7.18141 70.124 6.85245 69.9341C6.21324 69.565 5.62485 69.0889 5.11135 68.5594C4.53099 67.9603 4.0389 67.2515 3.59226 66.5508C2.11327 64.2294 1.22532 61.4131 1.67196 58.6504C1.80568 57.8213 2.04908 57.0109 2.39142 56.2433C2.64282 55.6764 3.07607 55.2137 3.44515 54.7216C4.31168 53.5662 5.14079 52.3841 5.92976 51.1725C7.79388 48.3081 9.42264 45.2913 10.8027 42.1648C12.4796 38.3617 13.7714 34.3928 14.6647 30.3356C14.785 29.7846 13.2311 30.028 13.1161 30.5388L13.1134 30.5335Z" fill="#060102"/>
<path d="M7.49431 71.0253C7.9249 76.6926 8.16293 82.3759 8.25921 88.0565C8.33409 92.5577 8.2298 97.0561 8.23515 101.557C8.2405 106.732 8.45178 111.902 8.80481 117.067C9.08296 121.127 9.35576 125.181 9.50553 129.246C9.70612 134.643 9.75693 140.043 9.6767 145.443C9.666 146.224 9.64995 147.005 9.6339 147.783C9.62855 148 11.1744 147.805 11.1851 147.369C11.3081 141.758 11.2921 136.141 11.1156 130.53C10.9872 126.409 10.7518 122.293 10.463 118.177C10.1073 113.122 9.85053 108.064 9.79704 102.996C9.7489 98.4068 9.8853 93.8173 9.83181 89.2252C9.7703 83.7987 9.57507 78.3722 9.21402 72.9563C9.16053 72.1727 9.10436 71.3891 9.04552 70.6081C9.0268 70.346 7.46489 70.6161 7.49431 71.0227V71.0253Z" fill="#060102"/>
<path d="M8.15491 96.687C7.77246 99.3642 7.39536 102.041 7.08779 104.727C6.71069 107.997 6.56094 111.279 6.44058 114.569C6.30418 118.273 6.15442 121.974 5.97523 125.676C5.83883 128.538 5.69975 131.405 5.40556 134.256C4.99369 138.23 4.34913 142.18 3.49597 146.082C3.40236 146.51 3.30606 146.941 3.2071 147.369C3.11884 147.748 3.65108 147.885 3.9212 147.866C4.28761 147.839 4.68877 147.628 4.77703 147.246C5.68368 143.314 6.3764 139.334 6.84176 135.325C7.16805 132.523 7.33654 129.709 7.47829 126.893C7.66818 123.119 7.83398 119.343 7.96771 115.564C8.08271 112.309 8.18166 109.046 8.52399 105.804C8.83156 102.905 9.23007 100.014 9.64462 97.1283C9.67136 96.9411 9.69809 96.7512 9.72483 96.564C9.83449 95.7911 8.25387 95.9997 8.15491 96.687Z" fill="#060102"/>
<path d="M56.1834 64.8071C55.1538 68.6022 53.9315 72.3385 53.0061 76.163C52.4525 78.439 52.046 80.7417 51.6395 83.0498C51.2677 85.16 50.904 87.2728 50.6232 89.3964C50.3932 91.1401 50.222 92.8919 50.1872 94.6517C50.1578 96.0799 50.1685 97.5455 50.4145 98.9577C50.9521 102.036 52.2359 105.018 53.5838 107.816C55.5603 111.924 57.986 115.826 60.7648 119.442C61.1446 119.936 61.5324 120.423 61.9256 120.907C62.0914 121.11 62.546 120.977 62.76 120.921C62.8242 120.905 63.5971 120.64 63.4768 120.493C60.5322 116.879 57.962 112.953 55.8331 108.808C54.3086 105.836 52.9072 102.699 52.1476 99.4364C51.8508 98.1553 51.7598 96.8609 51.7358 95.5477C51.7037 93.844 51.8133 92.1404 51.9979 90.4474C52.2145 88.463 52.5301 86.4892 52.8644 84.5234C53.2656 82.1699 53.6507 79.8056 54.1669 77.4735C55.0601 73.4377 56.2958 69.4928 57.4378 65.5212C57.5314 65.1922 57.625 64.8606 57.7159 64.5289C57.7855 64.2749 57.2158 64.3818 57.1034 64.4032C56.9082 64.438 56.261 64.5584 56.1915 64.8124L56.1834 64.8071Z" fill="#060102"/>
<path d="M29.2808 25.4707C35.4883 24.6416 41.685 23.7537 47.8738 22.8069C49.6122 22.5421 51.348 22.2693 53.0837 21.9938C53.3431 21.9537 53.9101 21.8173 53.9716 21.4964C54.0332 21.1755 53.4983 21.1862 53.3164 21.2156C47.1464 22.1944 40.9683 23.1145 34.7795 23.9756C33.025 24.219 31.2706 24.4597 29.5134 24.6924C29.254 24.7272 28.6843 24.8743 28.6255 25.1899C28.5666 25.5055 29.0989 25.4948 29.2808 25.4707Z" fill="#060102"/>
<path d="M26.6918 24.6496C23.7499 23.8473 20.8079 23.0449 17.866 22.2426C17.5317 22.1517 17.085 22.2961 16.7828 22.4405C16.6411 22.5074 16.256 22.7481 16.5929 22.8417C19.5349 23.644 22.4768 24.4464 25.4188 25.2487C25.7531 25.3396 26.1997 25.1952 26.5019 25.0508C26.6437 24.9839 27.0288 24.7432 26.6918 24.6496Z" fill="#060102"/>
<path d="M6.7 48.5542C9.52961 48.7387 12.3271 49.3405 15.1327 49.7122C18.0586 50.1 21.0058 50.0706 23.9531 50.0974C30.7116 50.1562 37.478 50.092 44.2284 49.7497C47.5609 49.5812 50.8933 49.3485 54.207 48.9447C54.5333 48.9046 55.012 48.8377 55.242 48.5702C55.472 48.3028 55.0468 48.276 54.8702 48.2974C48.6788 49.0543 42.4205 49.2763 36.1863 49.3967C32.8137 49.4608 29.4385 49.4769 26.066 49.4555C24.4426 49.4448 22.8218 49.4261 21.1984 49.3993C19.821 49.3753 18.457 49.3405 17.0877 49.1827C13.9532 48.8216 10.8508 48.1129 7.69758 47.907C7.33652 47.8829 6.90326 47.9979 6.60104 48.2012C6.35766 48.3643 6.38975 48.5381 6.69732 48.5595L6.7 48.5542Z" fill="#060102"/>
<path d="M8.3261 71.4826C11.1691 71.2954 14.095 71.6698 16.9674 71.8196C19.8398 71.9693 22.7603 71.7982 25.6568 71.7046C31.9954 71.504 38.3392 71.3515 44.6805 71.3756C47.8738 71.389 51.0698 71.4398 54.2605 71.6136C54.6215 71.6324 55.0976 71.504 55.2741 71.1536C55.4399 70.822 55.1297 70.5706 54.8141 70.5519C48.7644 70.2229 42.6907 70.2737 36.6356 70.3727C33.4182 70.4262 30.2008 70.5064 26.986 70.6054C24.135 70.6909 21.2412 70.9102 18.4357 70.8006C15.1273 70.6695 11.7949 70.2015 8.48124 70.4181C8.15763 70.4395 7.66817 70.6508 7.62003 71.0172C7.57189 71.3836 8.04528 71.4986 8.32342 71.4799L8.3261 71.4826Z" fill="#060102"/>
</svg>
