<svg width="115" height="84" viewBox="0 0 115 84" fill="none" xmlns="http://www.w3.org/2000/svg">
<mask id="mask0_1098_3098" style="mask-type:alpha" maskUnits="userSpaceOnUse" x="0" y="0" width="115" height="84">
<rect width="115" height="84" fill="#D9D9D9"/>
</mask>
<g mask="url(#mask0_1098_3098)">
<path d="M61.5638 3.72217C61.5638 5.95009 62.0583 8.25364 62.8285 10.2547C63.5131 12.0289 64.4829 13.617 65.7523 14.8269C67.0217 16.0368 68.5525 16.8221 70.0121 17.59C74.4953 19.9517 79.1592 21.6561 83.7993 23.471C87.1557 24.7857 89.6517 28.718 90.574 32.8888C91.0542 35.0586 91.1825 37.3156 91.0875 39.5493C90.9591 42.6033 90.7689 45.6456 90.7547 48.7053C90.7309 54.4875 91.0542 60.3103 91.9052 66.0052C92.2665 68.4309 92.7324 70.8392 93.3552 73.1834C93.978 75.5277 94.8195 77.5404 95.6182 79.716C96.2933 81.5483 96.9066 83.4621 97.2156 85.4458C97.3345 86.2252 97.3963 86.9989 97.2965 87.7784C97.2774 87.9296 97.3488 87.6795 97.2679 87.8889C96.9161 88.7673 98.3091 88.8254 98.5944 88.1158C98.7322 87.7667 98.7512 87.313 98.756 86.9349C98.775 85.6435 98.5183 84.3521 98.214 83.1247C97.6293 80.7863 96.7212 78.634 95.894 76.4177C95.1238 74.3527 94.5533 72.1829 94.0826 69.9899C92.9369 64.6091 92.4139 59.0306 92.2285 53.4811C92.1239 50.3748 92.1334 47.2627 92.2475 44.1564C92.3473 41.4515 92.6326 38.7524 92.4519 36.0358C92.0763 30.3584 89.666 24.9602 85.2873 22.6043C84.5599 22.2145 83.7802 21.9819 83.0196 21.6968C80.1148 20.6032 77.229 19.434 74.3812 18.1368C72.779 17.4038 71.1816 16.6302 69.627 15.7518C68.0724 14.8734 66.7031 13.9602 65.6097 12.407C64.0265 10.1442 63.1565 6.97971 62.9854 4.15845C62.9758 3.9723 62.9663 3.78034 62.9663 3.59419C62.9663 2.68092 61.5638 2.90197 61.5686 3.70472L61.5638 3.72217Z" fill="black"/>
<path d="M46.9589 3.75123C46.9589 5.99079 46.4312 8.35251 45.5992 10.3361C44.8481 12.1278 43.7546 13.6809 42.3378 14.7222C40.9924 15.7111 39.4948 16.4498 38.0448 17.1711C34.9878 18.6894 31.8596 19.9924 28.7123 21.2082C27.6236 21.6328 26.5158 21.9935 25.4319 22.4472C21.5667 24.076 18.8283 28.398 17.8727 33.168C17.4448 35.3145 17.3497 37.5308 17.44 39.7296C17.5732 42.8766 17.7633 46.0004 17.7681 49.1532C17.7681 54.9412 17.4305 60.7582 16.5367 66.4473C16.1564 68.873 15.6715 71.2871 15.0202 73.6255C14.3688 75.964 13.418 78.0697 12.6383 80.3209C12.0488 82.0253 11.5068 83.8111 11.2691 85.6493C11.174 86.3939 11.0884 87.249 11.2406 87.9936C11.2596 88.075 11.2738 88.1623 11.3024 88.2437C11.5686 88.9127 12.9236 88.4066 12.6811 87.79C12.5527 87.4701 12.5575 87.0687 12.5622 86.7895C12.5765 85.4574 12.8617 84.1369 13.1993 82.8804C13.8221 80.5362 14.792 78.3955 15.5812 76.1385C16.3181 74.0327 16.8791 71.8397 17.3307 69.6234C18.4337 64.2194 18.9281 58.6292 19.0993 53.0739C19.1896 50.049 19.1753 47.0242 19.066 44.0051C18.9614 41.242 18.6666 38.4848 18.8901 35.7217C19.1611 32.3594 20.1262 29.0554 22.0279 26.554C23.0976 25.1463 24.2766 24.1807 25.6363 23.4943C25.6791 23.471 25.7266 23.4535 25.7742 23.4303C25.8835 23.3779 25.5745 23.5059 25.7171 23.4535C25.7647 23.4361 25.8075 23.4128 25.855 23.3954C25.912 23.3721 25.9691 23.3547 26.0309 23.3314C26.7868 23.0522 27.5427 22.7729 28.2987 22.4879C31.3889 21.3071 34.4601 20.0389 37.479 18.6021C40.498 17.1653 43.8497 15.7052 45.8702 12.4593C47.344 10.0976 48.1617 7.10766 48.3281 4.15261C48.3376 3.96646 48.3471 3.7745 48.3471 3.58835C48.3471 2.77978 46.9589 3.07645 46.9589 3.75123Z" fill="black"/>
<path d="M25.0135 41.2246C25.0563 41.3061 24.9565 41.0967 25.0135 41.2304C25.0611 41.3293 25.1039 41.4282 25.1514 41.5329C25.3273 41.9227 25.4889 42.3241 25.6506 42.7196C26.2686 44.2728 26.8059 45.8783 27.2955 47.5012C29.1925 53.7603 30.4095 60.3278 31.2415 66.9127C31.9642 72.625 32.3778 78.3897 32.568 84.166C32.587 84.6779 33.9657 84.3522 33.9467 83.7123C33.6424 74.4574 32.7771 65.185 30.9468 56.1802C30.0054 51.5382 28.8312 46.9079 27.1529 42.58C26.8867 41.8936 26.6109 41.2072 26.2924 40.5615C26.0642 40.1019 24.7235 40.6313 25.0135 41.213V41.2246Z" fill="black"/>
<path d="M83.0196 39.1479C81.9927 40.6836 80.9515 42.2077 79.9388 43.755C78.3224 46.2214 78.1608 49.4208 77.7709 52.4282C76.8724 59.4086 76.0452 66.4356 75.6791 73.4917C75.5269 76.4002 75.3082 79.5472 75.8407 82.4209C75.9406 82.9618 77.324 82.5372 77.2194 81.9671C76.7678 79.5065 76.8962 76.8481 77.0055 74.3526C77.1576 70.81 77.4619 67.2733 77.8137 63.754C78.1655 60.2347 78.5601 56.855 78.9928 53.4171C79.1639 52.0501 79.3446 50.6831 79.5252 49.3219C79.7534 47.6466 79.9674 46.0062 80.7423 44.5461C81.2795 43.5339 81.9736 42.6207 82.5964 41.69L84.2937 39.1479C84.5029 38.8338 84.113 38.7058 83.9276 38.6942C83.6186 38.6825 83.2192 38.8396 83.0148 39.1421L83.0196 39.1479Z" fill="black"/>
<path d="M53.9666 26.5831V48.4203C53.9666 48.9205 55.3453 48.6122 55.3453 47.9666V26.1294C55.3453 25.6291 53.9666 25.9374 53.9666 26.5831Z" fill="black"/>
<path d="M55.3453 52.69C56.5957 53.4986 57.9934 54.0454 59.3579 54.4875C62.4766 55.4938 65.7761 55.7905 68.9709 55.2204C71.3195 54.8016 73.5967 53.9348 75.7314 52.6609C75.9501 52.5271 76.2734 52.2188 76.0784 51.8872C75.893 51.5731 75.3843 51.6778 75.1561 51.8174C69.6507 55.0983 63.2421 55.1506 57.5798 52.4224C57.19 52.2363 56.8001 52.0327 56.4293 51.7942C56.1298 51.6022 55.7162 51.6895 55.4452 51.9221C55.2503 52.0908 55.0458 52.4922 55.3501 52.69H55.3453Z" fill="black"/>
<path d="M52.3312 51.8C51.2282 52.5097 50.0111 52.9925 48.8178 53.3881C45.9558 54.342 42.9511 54.6387 40.0035 54.1617C37.7785 53.8069 35.6201 52.9809 33.6044 51.7825C33.2953 51.5964 32.9007 51.6604 32.6202 51.9047C32.4301 52.0734 32.2161 52.5097 32.5299 52.6958C38.4727 56.2384 45.3853 56.3373 51.5182 53.4288C51.9936 53.2019 52.469 52.9692 52.9207 52.6784C53.7527 52.1432 53.0015 51.3695 52.3359 51.7942L52.3312 51.8Z" fill="black"/>
<path d="M73.8012 21.3885C70.4685 22.0459 67.1405 22.6974 63.8078 23.3547L62.3911 23.6339C62.2389 23.663 61.5876 23.8317 61.5829 24.0934C61.5829 24.3843 61.9822 24.2854 62.1343 24.2563C65.467 23.599 68.795 22.9475 72.1277 22.2902L73.5444 22.011C73.6966 21.9819 74.3479 21.8132 74.3527 21.5514C74.3527 21.2606 73.9533 21.3594 73.8012 21.3885Z" fill="black"/>
<path d="M35.5488 22.0226C38.8815 22.6799 42.2095 23.3314 45.5422 23.9887C46.0128 24.0818 46.4883 24.1749 46.9589 24.268C47.2727 24.3319 47.6388 24.2156 47.9193 24.0469C48.0191 23.9887 48.4042 23.6921 48.0952 23.6339C44.7625 22.9766 41.4345 22.3251 38.1018 21.6677C37.6312 21.5747 37.1558 21.4816 36.6851 21.3885C36.3713 21.3245 36.0052 21.4409 35.7247 21.6096C35.6249 21.6677 35.2398 21.9644 35.5488 22.0226Z" fill="black"/>
<path d="M29.9626 58.1522C29.0213 61.7529 28.0182 65.3479 26.8439 68.8439C26.4873 69.9084 26.0594 70.9322 25.6838 71.9909C25.1514 73.4859 25.0563 74.9925 25.1133 76.598C25.2037 79.175 25.2322 81.7519 25.1466 84.3289C25.0991 85.7889 25.0135 87.2548 24.8281 88.6974C24.6855 89.8201 24.5048 90.9835 24.0484 91.9841C23.6776 92.8101 25.0706 92.8217 25.3653 92.176C26.2401 90.2448 26.3637 87.7493 26.4826 85.5912C26.6299 82.9386 26.6157 80.2686 26.5444 77.616C26.5063 76.2257 26.3875 74.8296 26.649 73.4626C26.8962 72.1829 27.4762 71.0195 27.8946 69.8212C28.6885 67.5467 29.3731 65.2199 30.0339 62.8872C30.4618 61.3806 30.8802 59.8624 31.2795 58.3441C31.522 57.4192 30.148 57.4425 29.9626 58.1522Z" fill="black"/>
<path d="M77.1006 58.6292C78.5744 61.7704 79.82 65.1327 80.7804 68.5589C81.484 71.0777 81.9974 73.6488 82.0069 76.3246C82.0164 79.3553 82.1353 82.4035 82.6202 85.3818C83.224 89.1105 84.4221 92.6182 85.8816 95.963C86.1906 96.6726 87.4933 96.0153 87.1367 95.2009C85.8055 92.1528 84.7121 88.9534 84.1035 85.5679C83.5663 82.5721 83.4237 79.5124 83.4094 76.4526C83.3809 71.194 81.7597 66.2321 79.9198 61.5552C79.4302 60.3103 78.9215 59.0771 78.3605 57.8788C78.0324 57.1808 76.7298 57.8439 77.1054 58.6408L77.1006 58.6292Z" fill="black"/>
<path opacity="0.3" d="M93 18H17V45H93V18Z" fill="#00FF99"/>
</g>
</svg>
