<svg width="101" height="116" viewBox="0 0 101 116" fill="none" xmlns="http://www.w3.org/2000/svg">
<path d="M63.5565 1.01572C62.507 2.1404 61.5182 3.25063 60.275 4.16714C59.185 4.9709 58.043 5.69948 56.9038 6.43096C55.9353 7.05257 54.958 7.67129 53.9143 8.15701C52.0061 9.04462 49.9649 9.19785 47.9122 8.66298C45.8594 8.1281 43.9715 6.95138 42.283 5.64455C40.2736 4.08908 38.5128 2.31098 37.1511 0.157031C36.8967 -0.244847 35.6274 0.194616 35.9397 0.689013C37.2263 2.72443 38.8713 4.4418 40.7564 5.92789C42.5027 7.30411 44.3531 8.54154 46.4839 9.23544C48.794 9.98715 51.2775 9.97269 53.5587 9.13424C54.6198 8.74393 55.6144 8.18593 56.5771 7.6019C57.8233 6.8473 59.0462 6.04643 60.2461 5.22243C61.1741 4.58347 62.0907 3.90693 62.9031 3.12052C63.5074 2.5365 64.048 1.88887 64.6205 1.27593C64.8142 1.07065 64.7593 0.842246 64.4846 0.764183C64.2099 0.68612 63.7618 0.793095 63.5565 1.01283V1.01572Z" fill="black"/>
<path d="M76.7231 29.3409C76.564 29.2108 76.0032 28.78 75.1589 28.7598C74.5604 28.7453 74.1123 28.9448 73.907 29.0518C73.5948 35.638 73.2825 42.2271 72.9674 48.8132C71.9554 50.068 70.9117 51.3286 69.8391 52.5921C64.2099 59.2129 58.4043 65.0965 52.6364 70.3181C51.2775 70.3181 49.9186 70.3181 48.5569 70.3181V71.7724C49.9215 71.7724 51.2833 71.7724 52.648 71.7724C52.7723 71.9747 52.9747 72.287 53.2609 72.6455C57.1293 77.468 65.4878 77.0893 67.3353 77.0054C70.6515 76.8551 74.332 76.8378 77.3447 74.3889C79.2008 72.8797 80.1289 71.0264 80.473 70.321C81.6844 67.8374 81.7191 65.6661 81.7249 64.2176C81.7306 62.6593 81.4589 61.0286 78.9088 54.3383C78.0299 52.0341 77.2637 50.1374 76.7202 48.8161C76.7202 42.3254 76.7202 35.8346 76.7202 29.3467L76.7231 29.3409Z" fill="black"/>
<path d="M23.9238 29.3409C24.0828 29.2108 24.6437 28.78 25.4879 28.7598C26.0864 28.7453 26.5345 28.9448 26.7398 29.0518C27.0521 35.638 27.3643 42.2271 27.6795 48.8132C28.6914 50.068 29.7351 51.3286 30.8077 52.5921C36.4369 59.2129 42.2425 65.0965 48.0105 70.3181H52.09V71.7724H47.9989C47.8746 71.9747 47.6722 72.287 47.386 72.6455C43.5175 77.468 35.159 77.0893 33.3115 77.0054C29.9953 76.8551 26.3148 76.8378 23.3022 74.3889C21.446 72.8797 20.5179 71.0264 20.1739 70.321C18.9624 67.8374 18.9277 65.6661 18.922 64.2176C18.9162 62.6593 19.188 61.0286 21.738 54.3383C22.6169 52.0341 23.3831 50.1374 23.9267 48.8161V29.3467L23.9238 29.3409Z" fill="black"/>
<path d="M40.4557 5.6619C40.8547 7.46601 40.6812 9.44939 40.5396 11.2737C40.369 13.4566 40.0249 15.599 39.2414 17.6518C38.0445 20.7945 36.009 23.4747 33.2942 25.4725C31.7937 26.5769 30.1283 27.4385 28.4254 28.1787C26.4565 29.0373 24.45 29.8122 22.3712 30.3702C20.2317 30.9455 18.0373 31.3098 15.8284 31.4833C14.9119 31.5556 13.9317 31.4746 13.0326 31.6626C11.9484 31.891 10.8931 32.2871 9.93899 32.8509C8.46158 33.724 7.25016 35.0048 6.45219 36.5256C6.19487 37.0142 5.96935 37.523 5.79298 38.0464C5.41713 39.1595 5.35641 40.2466 5.34196 41.4088C5.27835 46.772 5.21475 52.1352 5.14825 57.4984C5.01815 68.2624 4.89092 79.0235 4.76082 89.7875C4.74636 90.8948 4.69722 92.0079 4.72902 93.1124C4.75215 93.8959 4.8042 94.6794 4.78685 95.4658C4.74348 97.4174 4.35028 99.2446 3.75758 101.092C2.67048 104.484 1.2798 107.806 0.548321 111.301C0.311242 112.431 0.134874 113.573 0.001878 114.718C-0.0559462 115.21 1.26245 114.967 1.31161 114.545C1.55736 112.423 1.96502 110.324 2.58085 108.28C3.01453 106.84 3.56097 105.438 4.0467 104.018C4.66253 102.225 5.3622 100.401 5.74094 98.5392C6.11969 96.6772 6.1168 94.7633 6.04452 92.8464C5.95489 90.4149 6.09078 87.9573 6.11969 85.5258C6.1515 82.8428 6.1833 80.1626 6.21511 77.4796C6.27871 72.1164 6.34232 66.7532 6.40881 61.39C6.47242 55.9892 6.53891 50.5913 6.60252 45.1905C6.61987 43.849 6.63432 42.5075 6.65167 41.1689C6.66612 39.9546 6.75287 38.8154 7.1721 37.6676C7.63758 36.3926 8.37195 35.1927 9.36075 34.256C10.1443 33.5129 11.0723 32.9347 12.0929 32.5791C13.0268 32.2524 13.9491 32.2842 14.9205 32.2235C17.0716 32.0876 19.2053 31.7811 21.3072 31.2954C23.5363 30.7807 25.6874 30.0261 27.8009 29.1588C29.4604 28.4793 31.0998 27.7334 32.635 26.8024C35.5551 25.0359 38.0329 22.5986 39.6115 19.5571C41.5255 15.8708 42.0343 11.6959 41.9678 7.58745C41.9563 6.82995 41.9273 6.05799 41.7625 5.31495C41.67 4.88995 40.3516 5.21954 40.4499 5.66768L40.4557 5.6619Z" fill="#030000"/>
<path d="M18.4189 67.2447C17.9794 74.0275 17.9043 80.8363 18.283 87.622C18.4305 90.253 18.5808 92.8608 18.5056 95.5005C18.4622 97.0531 18.3813 98.6028 18.3004 100.152C18.2021 102.046 18.2049 103.975 17.9043 105.848C17.6036 107.722 17.0369 109.442 16.3025 111.136C15.7069 112.51 14.9986 113.825 14.3336 115.167C14.2208 115.395 14.7875 115.34 14.8685 115.326C15.1027 115.288 15.5132 115.19 15.6318 114.95C16.9299 112.324 18.2946 109.76 18.9567 106.883C19.3817 105.042 19.4366 103.174 19.5349 101.295C19.6216 99.6494 19.7113 98.0014 19.7778 96.3563C19.8847 93.6501 19.824 90.9758 19.6563 88.2754C19.4742 85.3755 19.3788 82.4727 19.3556 79.5671C19.3238 75.3372 19.4568 71.1103 19.7315 66.8891C19.746 66.6607 18.4478 66.8226 18.4189 67.2418V67.2447Z" fill="#030000"/>
<path d="M15.2732 57.7037C15.7647 58.7156 16.1522 59.7825 16.528 60.8407C17.0918 62.428 17.6036 64.0297 18.0922 65.643C19.3065 69.6444 20.3704 73.6921 21.2725 77.7745C22.1109 81.5765 22.8684 85.4478 23.0969 89.3394C23.305 92.8348 22.8164 96.3939 22.0792 99.7998C21.5154 102.413 20.7058 104.958 19.8414 107.485C19.0954 109.659 18.3293 111.842 17.3983 113.946C17.2364 114.311 17.0687 114.675 16.8865 115.028C16.5801 115.618 17.8985 115.519 18.1182 115.094C19.0868 113.224 19.7893 111.197 20.4977 109.219C21.3592 106.817 22.1977 104.391 22.8511 101.922C23.8428 98.1778 24.5251 94.2168 24.4615 90.3282C24.3979 86.5522 23.7069 82.7792 22.9436 79.0929C22.0792 74.9151 21.021 70.772 19.8211 66.678C18.9595 63.7406 18.0835 60.7568 16.8605 57.9466C16.7738 57.7471 16.6842 57.5476 16.5887 57.351C16.3517 56.8624 15.0651 57.2671 15.2761 57.7037H15.2732Z" fill="#030000"/>
<path d="M59.0289 5.28315C58.6588 6.95138 58.7224 8.76128 58.7831 10.4555C58.8612 12.6413 59.1127 14.8126 59.7979 16.8971C60.8272 20.0283 62.6458 22.8328 65.1611 24.9752C68.1044 27.4819 71.8282 29.0807 75.4596 30.3124C77.7032 31.0728 80.0162 31.6163 82.3638 31.9343C83.3497 32.0673 84.3414 32.1628 85.336 32.2235C86.3306 32.2842 87.302 32.2755 88.2822 32.6282C91.7285 33.8657 93.9431 37.2571 93.9865 40.8624C94.0501 46.2487 94.1166 51.6351 94.1802 57.0185C94.3103 67.8258 94.4375 78.6332 94.5676 89.4434C94.5821 90.6346 94.637 91.8345 94.6052 93.0285C94.585 93.7658 94.5358 94.5031 94.5416 95.2403C94.559 97.2063 94.9059 99.0741 95.4986 100.939C96.5973 104.385 98.0197 107.765 98.7686 111.315C99.0114 112.469 99.1936 113.634 99.3295 114.802C99.3757 115.207 100.694 114.924 100.642 114.45C100.393 112.293 99.9742 110.153 99.341 108.074C98.9074 106.649 98.3638 105.255 97.881 103.847C97.2651 102.046 96.5568 100.21 96.1925 98.3339C95.8282 96.4575 95.8802 94.6014 95.9178 92.6961C95.967 90.1518 95.8629 87.596 95.8311 85.0488C95.7993 82.3571 95.7675 79.6625 95.7357 76.9707C95.6721 71.5844 95.6056 66.1981 95.542 60.8147C95.4784 55.4283 95.4119 50.042 95.3483 44.6586C95.3309 43.3113 95.3164 41.9668 95.2991 40.6195C95.2846 39.4949 95.1199 38.428 94.7093 37.3756C94.238 36.1671 93.5412 35.0366 92.6305 34.1114C91.2427 32.7034 89.2218 31.6221 87.2211 31.57C85.2204 31.518 83.0606 31.2896 81.0165 30.8877C78.6371 30.4222 76.3472 29.6908 74.1008 28.7829C72.4499 28.115 70.8135 27.4009 69.2724 26.5046C66.2916 24.767 63.7733 22.2893 62.2092 19.1985C60.3415 15.5065 59.9049 11.3316 60.0986 7.24339C60.1333 6.52637 60.1796 5.80067 60.3357 5.101C60.4369 4.6413 59.1214 4.84657 59.026 5.27447L59.0289 5.28315Z" fill="#030000"/>
<path d="M80.9124 67.2447C81.3548 74.0419 81.4271 80.8652 81.0455 87.6682C80.9732 88.9317 80.8691 90.1952 80.8228 91.4615C80.7737 92.8406 80.7852 94.2226 80.8257 95.6017C80.872 97.1601 80.9529 98.7184 81.0339 100.277C81.1293 102.133 81.1322 104.021 81.4213 105.86C81.7104 107.699 82.2916 109.497 83.0346 111.208C83.6302 112.582 84.3385 113.897 85.0035 115.239C85.177 115.586 86.4405 115.138 86.3161 114.886C85.018 112.261 83.6533 109.696 82.9912 106.82C82.5662 104.981 82.5171 103.113 82.4188 101.234C82.332 99.5742 82.2395 97.9147 82.1759 96.2551C82.0718 93.5547 82.1412 90.8862 82.3089 88.1915C82.4853 85.3206 82.5836 82.4467 82.6038 79.5699C82.6356 75.3401 82.5026 71.1132 82.228 66.892C82.2106 66.6173 80.8922 66.8515 80.9153 67.2447H80.9124Z" fill="#030000"/>
<path d="M84.1015 57.4927C83.5984 58.5277 83.1994 59.6206 82.8149 60.7048C82.2511 62.2863 81.7393 63.888 81.2507 65.4955C80.0277 69.523 78.9551 73.6025 78.0473 77.7138C77.2059 81.536 76.4455 85.4275 76.2258 89.3394C76.0263 92.8898 76.5091 96.5009 77.2637 99.9617C77.8304 102.572 78.6428 105.114 79.5073 107.638C80.259 109.832 81.0368 112.03 81.9735 114.152C82.1354 114.516 82.3031 114.88 82.4853 115.233C82.7368 115.716 84.0176 115.305 83.7979 114.88C82.838 113.027 82.1441 111.021 81.4416 109.06C80.58 106.652 79.7415 104.223 79.091 101.751C78.1167 98.0564 77.4343 94.0925 77.5037 90.2934C77.5702 86.5493 78.2699 82.8052 79.0274 79.1478C79.889 74.9989 80.9385 70.8876 82.1297 66.8197C82.9797 63.9111 83.8702 60.8869 85.0614 58.1518C85.1481 57.9524 85.2377 57.7529 85.3331 57.5563C85.6251 56.9549 84.3096 57.059 84.1015 57.4898V57.4927Z" fill="#030000"/>
<path opacity="0.3" d="M97.8058 27.3142H2.97406V53.046H97.8058V27.3142Z" fill="#00FF99"/>
</svg>
