<svg width="40" height="149" viewBox="0 0 40 149" fill="none" xmlns="http://www.w3.org/2000/svg">
<path opacity="0.3" d="M35 23H3V94H35V23Z" fill="#00FF99"/>
<path d="M19.7722 0.236876C17.9354 0.39046 16.1529 1.09514 14.8952 2.47288C13.8184 3.65186 13.2348 5.20125 12.9724 6.75967C12.71 8.3181 12.7371 9.98945 12.9814 11.575C13.1715 12.7991 13.4746 14.0549 14.0944 15.139C14.6328 16.0741 14.9495 17.0905 14.9721 18.1791C14.9902 19.0961 14.8047 20.3293 14.0265 20.93C13.4384 21.3818 12.5426 21.6031 11.864 21.8832C10.9229 22.2716 9.9819 22.6601 9.04087 23.0486C8.29891 23.3558 7.55694 23.6584 6.81498 23.9611C6.66116 24.0243 6.48019 24.074 6.33541 24.1553C6.21326 24.2276 6.52543 24.0921 6.45757 24.1192C6.38066 24.1463 6.29922 24.1689 6.22231 24.2005C5.29033 24.5528 4.45336 25.1852 3.77473 25.908C2.45819 27.3218 1.79766 29.2055 1.62122 31.1072C1.41311 33.3071 1.5986 35.5702 1.64836 37.7746C1.74337 42.0704 1.38596 46.3346 0.924494 50.6034C0.539939 54.1539 0.146335 57.6953 0.0422789 61.2684C-0.030108 63.7619 -0.00296293 66.2554 0.0739482 68.7443C0.155383 71.4727 0.105617 74.3276 0.947115 76.9565C1.52169 78.7679 2.58939 80.3038 4.03261 81.537C4.64337 82.061 5.44868 82.9011 6.29922 82.9373C7.28097 82.9779 7.88268 82.3094 7.661 81.3653C7.43931 80.4212 6.8557 79.7436 6.07301 79.1609C5.29033 78.5782 4.72481 77.8148 4.57098 76.803C4.48503 76.2248 4.53027 75.6556 4.60265 75.0819C4.60718 75.0367 4.67052 74.9464 4.66599 74.9057H4.65694C3.9376 74.9238 3.72496 74.9916 4.01903 75.1045C4.0688 75.1948 4.16833 75.2716 4.22262 75.3665C4.44883 75.7685 4.53479 76.2745 4.61623 76.7216C4.79719 77.7064 4.8741 78.7047 4.96006 79.6985C4.99626 80.1005 6.31279 79.8295 6.27208 79.3461C6.18159 78.3523 6.10921 77.3495 5.92824 76.3693C5.80609 75.7234 5.65679 74.6709 4.92839 74.4314C4.14571 74.174 3.38112 74.6889 3.24992 75.4568C3.15944 75.9944 3.17754 76.6042 3.25897 77.1463C3.40375 78.1084 3.92403 78.9531 4.68861 79.5404C5.4532 80.1276 6.05944 80.629 6.32637 81.6318C6.35804 81.7493 6.38971 81.8712 6.39875 81.9932C6.40328 82.0564 6.35804 82.2823 6.37613 82.3275C6.444 82.472 6.93261 82.3591 6.84212 82.21C6.82855 82.1829 6.71092 82.1513 6.67925 82.1287C6.27208 81.808 5.83776 81.5234 5.4351 81.1936C4.72481 80.6064 4.0688 79.9559 3.53042 79.2061C2.28175 77.476 1.81123 75.3349 1.61217 73.2479C1.33619 70.3524 1.32262 67.3982 1.30905 64.4891C1.29095 60.7218 1.51716 56.9771 1.92434 53.2324C2.38128 49.0314 2.89704 44.8214 2.97395 40.5933C3.00562 38.8452 2.9468 37.097 2.91061 35.3489C2.86084 32.9683 2.6663 30.4794 3.54852 28.2162C4.04618 26.9424 4.91935 25.7454 6.07754 25.0362C6.17254 24.9774 6.26755 24.9232 6.36708 24.869C6.50281 24.7922 6.44852 24.8284 6.46209 24.8193C6.56162 24.7742 6.66116 24.7335 6.76521 24.6929C6.49376 24.8058 6.71545 24.7109 6.86927 24.6522C7.05476 24.5799 7.24025 24.4986 7.42574 24.4218C9.11326 23.7307 10.8008 23.035 12.4883 22.3349C13.2348 22.0232 14.0808 21.7657 14.7685 21.3321C15.5421 20.8442 15.9945 20.0221 16.1755 19.1458C16.3927 18.1068 16.2977 16.982 15.9629 15.9792C15.7321 15.2791 15.3023 14.6873 15.0264 14.0097C14.5061 12.7449 14.2573 11.3582 14.1487 10.003C13.9179 7.06232 14.4247 3.17304 17.2704 1.56493C17.9807 1.1629 18.7724 0.991244 19.5777 0.923487C19.7949 0.905418 20.288 0.756351 20.3242 0.489838C20.3649 0.200739 19.9442 0.214291 19.7632 0.227842L19.7722 0.236876Z" fill="black"/>
<path d="M7.83294 36.3607C8.26726 38.5651 8.66992 40.7785 9.00018 43.001C9.54761 46.7141 9.57928 50.5266 9.18567 54.2578C9.0228 55.8207 8.76945 57.3746 8.43466 58.9105C8.04558 60.6993 7.53435 62.461 7.19503 64.2633C6.43949 68.2746 6.1409 72.3762 6.22686 76.4597C6.26758 78.4924 6.36711 80.5522 6.6838 82.5624C6.74262 82.9418 8.06368 82.6437 7.99581 82.21C7.73794 80.5793 7.6384 78.917 7.57054 77.2728C7.41219 73.2886 7.62935 69.2819 8.27179 65.3474C8.84184 61.8737 9.92764 58.522 10.3755 55.0257C10.8551 51.2855 10.923 47.4052 10.4479 43.665C10.1222 41.0993 9.64261 38.5471 9.14495 36.0129C9.06804 35.6244 7.75151 35.9406 7.83294 36.3653V36.3607Z" fill="black"/>
<path d="M8.26274 38.6419C7.89628 43.0687 7.38505 47.5001 6.6657 51.8817C6.43044 53.3272 6.16352 54.7727 5.83325 56.2001C5.50299 57.6276 5.01438 59.0821 4.71126 60.5502C3.97381 64.1142 3.68427 67.9674 4.3267 71.563C4.48505 72.4484 4.77007 73.275 5.04152 74.1333C5.38083 75.2084 5.62966 76.3061 5.76539 77.4263C5.87849 78.384 5.96445 79.4319 5.78801 80.3896C5.7292 80.6968 7.02311 80.489 7.08193 80.1637C7.57054 77.5483 6.62498 74.9419 5.92374 72.471C5.47132 70.8674 5.34012 69.1689 5.32202 67.5066C5.2994 65.5416 5.4487 63.5676 5.76539 61.6298C6.03684 59.981 6.52093 58.409 6.93263 56.7964C7.28099 55.4232 7.55244 54.0319 7.79675 52.6361C8.32155 49.6276 8.71063 46.6011 9.04995 43.5656C9.24448 41.8084 9.42998 40.0512 9.57475 38.2895C9.58832 38.1043 8.29441 38.2444 8.26274 38.6419Z" fill="black"/>
<path d="M29.4992 38.6418C29.8657 43.0416 30.3724 47.4458 31.0827 51.8049C31.3225 53.2775 31.5894 54.7501 31.9242 56.2046C32.259 57.6591 32.734 59.073 33.0417 60.5321C33.7972 64.1277 34.0913 68.0441 33.3946 71.6714C33.2136 72.62 32.8652 73.5054 32.5983 74.4314C32.2952 75.4703 32.0735 76.5364 31.9649 77.616C31.8699 78.5375 31.8156 79.5358 31.9875 80.4573C32.0825 80.9813 33.3991 80.6561 33.2996 80.105C33.1593 79.3416 33.1955 78.5285 33.2588 77.7606C33.3312 76.8842 33.476 76.0169 33.6841 75.1632C33.9103 74.2236 34.2723 73.3292 34.5211 72.3941C35.4259 68.9656 35.1907 65.1215 34.6297 61.6568C34.3627 59.999 33.8786 58.4135 33.4624 56.7918C33.1141 55.4231 32.8426 54.0364 32.5983 52.6451C32.069 49.6366 31.6799 46.6056 31.3406 43.5701C31.146 41.8129 30.9605 40.0557 30.8158 38.294C30.7751 37.7881 29.4585 38.0817 29.5038 38.6463L29.4992 38.6418Z" fill="black"/>
<path d="M6.67927 82.5624C6.88286 86.4471 7.27647 90.3364 7.77865 94.1941C8.20845 97.4871 8.73325 100.776 9.47522 104.014C9.70143 105.004 10.086 106.002 10.1674 107.018C10.2624 108.211 10.2443 109.417 10.1674 110.614C10.0634 112.24 9.77381 113.848 9.65166 115.474C9.55213 116.812 9.53856 118.158 9.59737 119.499C9.74214 122.716 10.285 125.905 10.9501 129.053C11.3754 131.072 11.9047 133.064 12.3526 135.079C12.6557 136.461 12.9407 137.943 12.7372 139.366C12.5109 140.965 11.4342 141.882 10.3574 142.952C9.57927 143.725 8.79207 144.524 8.18583 145.441C7.77865 146.051 7.26742 146.95 7.68364 147.682C8.2175 148.617 9.81453 148.698 10.7465 148.622C11.9454 148.522 12.9679 147.935 13.8501 147.158C14.1849 146.864 14.5016 146.535 14.8726 146.282C15.2435 146.029 15.6552 146.056 16.0941 145.871C17.2025 145.405 17.5509 144.249 17.6097 143.138C17.664 142.085 17.474 141.109 17.2704 140.089C17.0396 138.928 16.9446 137.74 16.8768 136.561C16.7682 134.663 16.7818 132.762 16.913 130.865C17.0442 128.967 17.3247 127.197 17.5373 125.367C17.9716 121.668 18.234 117.95 18.2114 114.223C18.1978 112.1 18.0893 109.977 17.863 107.868C17.7952 107.222 17.5645 106.454 17.6549 105.821C17.7138 105.379 17.854 104.931 17.9354 104.489C18.2386 102.786 18.3743 101.047 18.2974 99.3211C18.2567 98.4086 18.0802 97.5142 18.044 96.6017C18.0078 95.6893 18.139 94.7633 18.2702 93.8553C18.4602 92.5408 18.6457 91.2263 18.7634 89.9028C18.9624 87.6894 19.0122 85.4669 18.9941 83.249C18.9805 81.6409 18.9262 80.0373 18.8448 78.4292C18.7996 77.4896 18.7407 76.55 18.6774 75.615C18.6457 75.1226 18.6095 74.6302 18.5688 74.1424C18.5507 73.8849 18.5281 73.6319 18.51 73.3744C18.51 73.3609 18.4919 73.0402 18.4919 73.1802C18.501 72.4394 18.8312 71.4546 19.7406 71.676C20.5368 71.8657 20.8535 72.7511 20.8626 73.4874C20.8626 73.4377 20.8716 73.2976 20.8535 73.5235C20.84 73.6726 20.8309 73.8171 20.8173 73.9662C20.7992 74.2191 20.7766 74.4721 20.7585 74.7251C20.7178 75.2446 20.6816 75.764 20.6499 76.2835C20.5911 77.205 20.5368 78.131 20.4916 79.057C20.4147 80.629 20.3694 82.201 20.3604 83.773C20.3378 87.2919 20.6047 90.7475 21.1024 94.2257C21.2336 95.1291 21.3557 96.0461 21.315 96.9586C21.2652 97.9795 21.0752 98.9823 21.0526 100.008C21.0119 101.679 21.1612 103.359 21.4733 105.004C21.5457 105.383 21.6769 105.767 21.7222 106.147C21.7538 106.395 21.6724 106.666 21.6407 106.919C21.5684 107.47 21.5095 108.021 21.4507 108.572C21.2471 110.637 21.1567 112.715 21.1476 114.788C21.134 118.528 21.4191 122.259 21.8624 125.968C22.0841 127.829 22.3601 129.676 22.4732 131.551C22.5863 133.426 22.5863 135.278 22.4641 137.139C22.3918 138.259 22.2967 139.397 22.0615 140.5C21.8353 141.543 21.6724 142.578 21.7674 143.653C21.8624 144.728 22.2606 145.816 23.4097 146.051C24.3688 146.245 24.9253 146.91 25.6537 147.519C26.5676 148.278 27.6081 148.703 28.8116 148.644C29.7662 148.599 31.3225 148.35 31.7387 147.316C32.0554 146.53 31.4899 145.654 31.0556 145.039C30.4222 144.145 29.6395 143.359 28.8613 142.591C27.7574 141.502 26.7712 140.54 26.5992 138.919C26.4364 137.423 26.7576 135.87 27.1014 134.424C27.5719 132.427 28.0696 130.44 28.4858 128.434C29.1328 125.317 29.6576 122.155 29.7752 118.971C29.825 117.634 29.8024 116.297 29.6893 114.964C29.549 113.311 29.2595 111.68 29.1735 110.022C29.1147 108.907 29.1056 107.782 29.2006 106.666C29.2278 106.35 29.3138 106.07 29.3952 105.758C29.5988 104.995 29.7843 104.222 29.9562 103.454C31.2682 97.582 31.974 91.5696 32.4535 85.5798C32.5395 84.4957 32.6209 83.4161 32.6797 82.332C32.7069 81.808 31.3904 82.07 31.3677 82.4991C31.1687 86.3297 30.7796 90.1648 30.2865 93.9682C29.8657 97.2341 29.3454 100.491 28.6261 103.707C28.3953 104.733 27.9836 105.79 27.8886 106.838C27.7936 107.886 27.7982 108.974 27.8434 110.04C27.9113 111.703 28.1872 113.333 28.3456 114.987C28.4723 116.319 28.5084 117.661 28.4677 118.998C28.3637 122.169 27.8524 125.313 27.2145 128.416C26.8119 130.377 26.3414 132.328 25.8663 134.27C25.5044 135.757 25.1877 137.301 25.2556 138.842C25.3279 140.468 26.1016 141.584 27.2236 142.686C27.9746 143.427 28.7347 144.163 29.4042 144.981C29.8702 145.55 30.671 146.485 30.49 147.293C30.2864 148.201 28.6125 147.967 28.0017 147.718C27.0652 147.334 26.4454 146.539 25.6492 145.952C25.2691 145.672 24.8755 145.469 24.4095 145.378C23.8893 145.279 23.5771 145.048 23.3599 144.552C22.903 143.504 23.0025 142.207 23.1971 141.109C23.3645 140.183 23.559 139.285 23.6585 138.345C23.8214 136.782 23.8757 135.206 23.8666 133.634C23.8395 129.938 23.1971 126.302 22.8532 122.63C22.4822 118.7 22.3375 114.747 22.5727 110.808C22.6361 109.751 22.7265 108.694 22.8442 107.637C22.912 107.036 23.1156 106.354 23.0251 105.758C22.8442 104.602 22.5637 103.477 22.4551 102.298C22.3013 100.622 22.4099 99.0004 22.5863 97.3335C22.6361 96.8728 22.6496 96.412 22.6315 95.9513C22.5999 94.9846 22.437 94.0315 22.3013 93.0783C22.0886 91.6193 21.9167 90.1512 21.8172 88.6786C21.6498 86.2213 21.6453 83.7504 21.7131 81.2885C21.7629 79.5313 21.8534 77.7787 21.971 76.0215C22.0343 75.0729 22.1836 74.1062 22.1791 73.1576C22.1791 72.9092 22.1384 72.6562 22.066 72.4168C21.3738 70.0905 17.7499 70.6461 17.2568 72.8279C17.207 73.0537 17.1844 73.2841 17.1889 73.5145C17.207 74.5354 17.3473 75.5653 17.4152 76.5861C17.5283 78.3433 17.6142 80.105 17.6595 81.8712C17.759 85.7425 17.6142 89.5956 17.0532 93.4307C16.913 94.3838 16.7546 95.3415 16.732 96.3081C16.723 96.7734 16.7365 97.2342 16.7908 97.6994C16.9899 99.4205 17.0623 101.105 16.8858 102.835C16.8134 103.554 16.7094 104.272 16.5737 104.981C16.5013 105.352 16.3746 105.726 16.3248 106.097C16.2977 106.296 16.3429 106.49 16.3701 106.689C16.4379 107.204 16.5013 107.719 16.5556 108.233C16.6732 109.322 16.7546 110.411 16.8134 111.504C17.017 115.425 16.8542 119.355 16.4741 123.258C16.1212 126.871 15.5105 130.444 15.4924 134.085C15.4833 135.68 15.5467 137.279 15.7276 138.864C15.8317 139.786 16.0534 140.671 16.1982 141.588C16.361 142.645 16.4787 144.037 15.9041 145.003C15.6462 145.432 15.3748 145.365 14.9314 145.505C14.4428 145.658 14.013 145.934 13.6148 146.255C12.8865 146.846 12.2169 147.705 11.2442 147.894C10.5203 148.034 8.91422 147.908 8.85088 146.914C8.79659 146.06 9.59285 145.175 10.0996 144.579C10.7646 143.793 11.5111 143.088 12.2395 142.365C13.3932 141.227 14.0808 140.03 14.1125 138.368C14.1442 136.705 13.7732 135.151 13.3886 133.588C12.9136 131.669 12.4657 129.74 12.0721 127.797C11.4523 124.721 10.9637 121.604 10.8868 118.465C10.8099 115.325 11.4297 112.484 11.5247 109.467C11.5563 108.482 11.5744 107.47 11.4613 106.49C11.4206 106.133 11.303 105.794 11.2125 105.446C11.0134 104.678 10.8279 103.906 10.6606 103.129C9.38021 97.32 8.68801 91.3709 8.21297 85.4443C8.12701 84.3783 8.04558 83.3122 7.99129 82.2462C7.96867 81.8396 6.65665 82.1016 6.67927 82.5985V82.5624Z" fill="black"/>
<path d="M19.0167 0.851202C20.6726 0.864753 22.2198 1.47005 23.2785 2.771C24.2783 3.99967 24.7443 5.60327 24.9343 7.15266C25.2736 9.91265 24.9615 13.2328 23.4278 15.6269C22.3646 17.2892 22.1882 20.0402 23.9933 21.3004C24.6538 21.7612 25.527 22.0051 26.2644 22.3123C27.2055 22.7008 28.142 23.0892 29.083 23.4777C30.9289 24.2366 32.7702 24.6974 34.141 26.1745C35.5119 27.6516 36.0774 29.6075 36.2086 31.5454C36.3534 33.7227 36.1905 35.9406 36.1453 38.1224C36.0593 42.3911 36.4348 46.6328 36.8963 50.8744C37.2808 54.3887 37.6654 57.8941 37.7604 61.431C37.8328 63.9335 37.8011 66.4406 37.7197 68.9431C37.6337 71.6534 37.6789 74.4947 36.8013 77.0921C36.186 78.9034 35.0685 80.376 33.5891 81.5776C33.3855 81.7448 33.1774 81.9028 32.9648 82.0609C32.8381 82.1558 32.535 82.2958 32.449 82.4268L32.9059 82.3229C32.9014 82.3004 32.8788 82.2823 32.8471 82.2778C32.8336 82.2281 32.7521 82.1377 32.7295 82.0745C32.6435 81.8215 32.725 81.5144 32.7928 81.2704C33.0824 80.2586 33.7022 79.8024 34.4849 79.1835C35.6566 78.253 36.1769 76.5364 35.8376 75.0774C35.6385 74.2237 34.6658 74.4134 34.0641 74.7838C33.3991 75.1948 33.2724 76.1751 33.1548 76.8752C32.9964 77.8148 32.9195 78.7589 32.8381 79.7075C32.8245 79.8792 34.1139 79.7482 34.1501 79.3552C34.2406 78.3117 34.313 77.2637 34.5256 76.2383C34.607 75.8408 34.6975 75.4026 34.9011 75.0413C34.9328 74.9871 34.9871 74.9283 35.0052 74.8741C35.1183 74.567 34.3175 74.8244 34.3582 75.0322C34.3853 75.1632 34.503 75.3168 34.5346 75.4659C34.6568 76.035 34.6296 76.7171 34.5075 77.2863C34.2813 78.3252 33.7293 78.9622 32.9059 79.572C32.1278 80.1502 31.5758 80.8774 31.4175 81.8622C31.2501 82.9102 32.1323 82.9689 32.9331 82.6934C33.7882 82.3997 34.5799 81.6634 35.2495 81.0717C35.919 80.4799 36.5343 79.8024 37.032 79.048C38.2399 77.2276 38.6652 75.0277 38.8371 72.8866C39.0724 69.9956 39.1041 67.0684 39.1086 64.1684C39.1176 60.365 38.8688 56.5931 38.4571 52.8168C37.9911 48.5661 37.4799 44.3064 37.4346 40.0286C37.4165 38.1676 37.4935 36.3065 37.5251 34.4499C37.5613 32.0739 37.6609 29.6392 36.566 27.4574C35.9733 26.2739 35.0594 25.2168 33.9013 24.5528C33.6524 24.4083 33.3946 24.2999 33.1276 24.1914C33.0914 24.1779 33.2317 24.2321 33.0598 24.1643C32.829 24.0695 32.6028 23.9791 32.3721 23.8843C30.6303 23.1706 28.893 22.4568 27.1557 21.7341C26.4183 21.4269 25.527 21.183 24.9343 20.6229C24.1562 19.8911 23.8847 18.7302 23.9435 17.7003C24.0023 16.6703 24.4729 15.8844 24.966 14.999C25.2691 14.4524 25.4953 13.8561 25.6763 13.2599C26.1287 11.7737 26.3414 10.2018 26.3459 8.64784C26.3549 5.64844 25.4772 2.02115 22.3917 0.783444C21.5864 0.462725 20.7268 0.336244 19.8627 0.327209C19.5732 0.327209 19.166 0.385933 18.9353 0.575654C18.7679 0.711169 18.7226 0.855719 19.0122 0.860236L19.0167 0.851202Z" fill="black"/>
<path d="M30.2231 36.2523C29.6169 38.6103 29.0378 40.9863 28.5989 43.3804C27.9203 47.0438 27.8886 50.8834 28.4903 54.5604C28.9292 57.2391 29.8069 59.8184 30.1914 62.5106C30.8293 66.951 31.2049 71.4321 31.3496 75.9131C31.422 78.0904 31.4627 80.2812 31.3722 82.4585C31.3496 83.0638 32.6707 82.8289 32.6933 82.323C32.9376 76.3784 32.5304 70.3434 31.8066 64.4485C31.5985 62.7681 31.3949 61.0877 30.9877 59.439C30.671 58.1561 30.3226 56.8822 30.0557 55.5858C29.2866 51.8592 29.1871 47.9925 29.7481 44.2296C30.1552 41.4968 30.852 38.791 31.5396 36.1213C31.6799 35.5747 30.3498 35.7509 30.2186 36.2568L30.2231 36.2523Z" fill="black"/>
</svg>
