<svg width="89" height="52" viewBox="0 0 89 52" fill="none" xmlns="http://www.w3.org/2000/svg">
<path d="M55.6953 1.11569C54.7528 2.21256 53.8699 3.29048 52.7405 4.2059C52.3559 4.51735 51.8928 4.86132 51.4378 5.19173C50.8934 5.58444 50.3464 5.97173 49.7966 6.35631C49.3253 6.68402 48.8513 7.00902 48.3666 7.31777C48.1499 7.45589 47.9305 7.5886 47.7084 7.7186C47.6163 7.77277 47.5216 7.82423 47.4295 7.8784C47.4078 7.88923 47.2426 7.9786 47.3428 7.92714C47.443 7.87568 47.2372 7.98131 47.2182 7.98944C47.0151 8.09235 46.812 8.18715 46.6034 8.27652C46.5141 8.31444 46.4247 8.34964 46.3353 8.38485C46.2838 8.40381 46.2324 8.42278 46.1836 8.44173C46.0645 8.49048 46.3624 8.38756 46.1728 8.44444C45.9832 8.50131 45.7882 8.5609 45.5932 8.60694C45.5418 8.62048 45.4876 8.62861 45.4361 8.64215C45.2926 8.68277 45.6149 8.61507 45.4659 8.63673C45.3468 8.65569 45.2249 8.67735 45.1057 8.6909C44.9974 8.70444 44.8863 8.71527 44.778 8.72339C44.7211 8.72881 44.667 8.73152 44.6101 8.73423C44.5993 8.73423 44.4584 8.74236 44.5641 8.73694C44.6941 8.73152 44.4638 8.73694 44.4368 8.73694C44.3636 8.73694 44.2905 8.73694 44.2174 8.73694C44.0549 8.73423 43.8924 8.72611 43.7299 8.71257C43.218 8.67194 42.717 8.56902 42.2024 8.42006C40.358 7.88381 38.7438 6.74089 37.2949 5.51402C35.4911 3.98652 33.9366 2.2559 32.7476 0.20569C32.6636 0.0594403 32.3468 0.0106903 32.2086 0.00256529C31.9541 -0.0136847 31.6697 0.0486037 31.4368 0.15152C31.0955 0.300479 30.7028 0.609233 30.9303 1.00194C32.0516 2.93569 33.5005 4.60944 35.1932 6.06652C36.7749 7.42881 38.4568 8.66111 40.4366 9.37069C42.6357 10.1588 45.0461 10.1209 47.2128 9.25694C48.2095 8.85881 49.1411 8.29548 50.0322 7.70507C51.1453 6.9684 52.2395 6.19111 53.3066 5.39215C54.1624 4.75027 55.0101 4.08131 55.7468 3.30131C56.2884 2.72986 56.7705 2.10423 57.2824 1.50569C57.5478 1.19423 57.5099 0.852982 57.0766 0.739232C56.6595 0.630899 55.9824 0.769023 55.6899 1.11027L55.6953 1.11569Z" fill="black"/>
<path d="M35.2257 6.08276C35.6861 7.89464 35.8622 9.80943 35.8242 11.6728C35.7674 14.3459 35.2528 17.0705 34.0638 19.4809C33.3597 20.9082 32.4524 22.2434 31.4124 23.4459C29.809 25.2984 27.7561 26.7988 25.5245 27.7738C25.2699 27.8848 25.0126 27.9905 24.7499 28.0907C24.6334 28.1367 24.5142 28.18 24.3978 28.2234C24.3328 28.2478 24.2705 28.2694 24.2055 28.2911C24.4547 28.2044 24.1947 28.2911 24.1567 28.3046C23.6747 28.4617 23.1872 28.5944 22.6942 28.7028C22.5886 28.7271 22.4803 28.7461 22.3747 28.7705C22.223 28.8057 22.6292 28.7244 22.3909 28.7678C22.3449 28.7759 22.2961 28.784 22.2501 28.7948C22.0144 28.8382 21.7788 28.8761 21.5405 28.9113C21.0584 28.9817 20.5709 29.0386 20.0861 29.0901C17.5159 29.3663 14.9701 29.6723 12.4432 30.2357C9.56695 30.8776 6.96695 32.2669 4.87612 34.3551C4.13133 35.0998 3.48403 35.8717 3.00465 36.8115C2.54424 37.7161 2.19215 38.6721 1.90507 39.6444C0.840695 43.2546 0.475068 47.0923 0.312568 50.8407C0.304443 51.0411 0.296328 51.2415 0.288203 51.4419C0.271953 51.8753 0.808204 51.9105 1.13591 51.8698C1.42841 51.8346 2.23549 51.6153 2.24903 51.2009C2.37091 47.7369 2.69049 44.2378 3.48403 40.8578C3.91466 39.0188 4.4482 37.1175 5.59924 35.6198C6.37924 34.6042 7.43007 33.6915 8.47549 32.9928C9.04153 32.6136 9.57236 32.313 10.1005 32.0719C10.393 31.9392 10.6909 31.8173 10.9915 31.7063C11.0538 31.6819 11.1188 31.6603 11.1811 31.6386C10.9834 31.7063 11.3003 31.6007 11.3084 31.598C11.4709 31.5465 11.6307 31.4978 11.7959 31.4544C13.2286 31.059 14.5015 30.845 15.9749 30.6338C17.1015 30.4713 18.2309 30.3548 19.363 30.2384C21.4755 30.0217 23.5365 29.6778 25.5245 28.9113C29.8145 27.2592 33.4274 24.1121 35.613 20.0605C37.8365 15.9411 38.259 10.9713 37.3734 6.4186C37.3165 6.12881 37.2542 5.84172 37.1811 5.55734C37.0078 4.86943 35.0415 5.38401 35.2203 6.08276H35.2257Z" fill="black"/>
<path d="M51.5678 5.3813C51.1155 7.16068 50.8935 9.01318 50.8447 10.8467C50.7689 13.7392 51.1453 16.6913 52.3533 19.3455C54.0297 23.0261 56.9791 26.1975 60.573 28.0609C62.5257 29.0738 64.6112 29.7319 66.7914 30.0271C67.2816 30.0921 67.7718 30.1463 68.262 30.1978C68.568 30.2303 68.8741 30.2601 69.1801 30.2926C69.3453 30.3088 69.237 30.298 69.2018 30.2926C69.283 30.3007 69.3643 30.3088 69.4455 30.3169C69.5837 30.3305 69.7218 30.3467 69.8599 30.3603C71.1599 30.5038 72.4545 30.6853 73.7382 30.9263C75.152 31.1917 76.5603 31.4842 77.882 32.0665C79.163 32.6326 80.3276 33.4098 81.3622 34.3469C82.1747 35.0809 82.971 35.9015 83.4882 36.8521C83.9595 37.7161 84.3035 38.6505 84.5905 39.5903C85.701 43.2411 86.0693 47.1384 86.2399 50.9382C86.248 51.1521 86.2589 51.3661 86.2643 51.5801C86.2697 51.7344 86.5405 51.8238 86.6435 51.8455C86.8737 51.8942 87.1499 51.8617 87.3747 51.8021C87.7268 51.7073 88.2414 51.4853 88.2251 51.0546C88.1033 47.5501 87.7783 44.0076 86.963 40.5923C86.5162 38.7209 85.9203 36.7303 84.7206 35.1865C83.0089 32.9846 80.4901 31.3488 77.8387 30.5363C75.2685 29.7482 72.5303 29.453 69.8653 29.1794C69.7353 29.1659 69.6053 29.1523 69.4753 29.1388C69.6351 29.1551 69.4672 29.1388 69.4266 29.1334C69.3643 29.128 69.302 29.1198 69.237 29.1144C68.9905 29.0873 68.7441 29.0603 68.4976 29.0305C68.021 28.9736 67.5416 28.9059 67.0676 28.8246C66.5937 28.7434 66.1089 28.6378 65.6376 28.5105C65.1122 28.3696 64.7574 28.2532 64.232 28.0555C61.7837 27.1265 59.5899 25.7128 57.7726 23.8251C57.0387 23.064 56.3697 22.2407 55.7712 21.3686C55.5328 21.0219 55.308 20.6671 55.0914 20.3069C55.021 20.1905 55.0643 20.2636 54.9993 20.1471C54.9587 20.074 54.918 20.0036 54.8774 19.9305C54.807 19.8032 54.7393 19.6759 54.6716 19.5459C52.5239 15.4211 52.4074 10.4432 53.3364 5.9663C53.3933 5.68464 53.4582 5.40568 53.5287 5.12943C53.7074 4.42797 51.7357 4.71505 51.5678 5.37859V5.3813Z" fill="black"/>
<path d="M68.0047 30.8152C65.2313 31.1105 62.4553 31.4057 59.682 31.7009C57.7672 31.904 55.8551 32.1071 53.9403 32.313C53.0601 32.4077 52.1663 32.4673 51.2915 32.5946C50.8799 32.6542 50.563 32.8709 50.2163 33.074L48.8784 33.8648C48.1959 34.2684 47.5107 34.6719 46.8282 35.0755C46.6224 35.1973 46.357 35.4763 46.6765 35.6361C46.9961 35.7959 47.508 35.6388 47.7843 35.4763C49.0734 34.7152 50.3626 33.9542 51.6517 33.1932L51.0559 33.3909C52.949 33.1905 54.8422 32.9873 56.7326 32.7869C59.7226 32.4673 62.7126 32.1505 65.7026 31.8309C66.3932 31.7577 67.0811 31.6846 67.7717 31.6115C68.0372 31.5844 68.6113 31.4219 68.6709 31.105C68.7359 30.7692 68.1942 30.7963 68.0047 30.8152Z" fill="black"/>
<path d="M20.0049 31.6142C22.7349 31.904 25.4649 32.1965 28.1949 32.4863C30.1016 32.6894 32.0109 32.8925 33.9176 33.0957L35.8676 33.3042L36.4499 33.3665C36.4878 33.3719 36.6747 33.4179 36.7099 33.3936C36.6476 33.4369 36.5149 33.3069 36.6639 33.4071C36.7884 33.4911 36.9266 33.5615 37.0539 33.6373L38.3918 34.4281C39.0743 34.8317 39.7595 35.2352 40.442 35.6388C40.8455 35.8771 42.2999 35.2704 41.7013 34.9184C41.1028 34.5663 40.5286 34.225 39.9409 33.8784C39.2611 33.4775 38.5922 33.0198 37.888 32.6677C37.6822 32.5648 37.433 32.5702 37.2055 32.5459C36.6476 32.4863 36.087 32.4267 35.5291 32.3671C31.7347 31.9636 27.943 31.56 24.1486 31.1565C23.0897 31.0427 22.0334 30.9317 20.9745 30.8179C20.598 30.7773 20.1593 30.8667 19.8641 31.1159C19.6338 31.3109 19.6609 31.5817 19.9995 31.6169L20.0049 31.6142Z" fill="black"/>
</svg>
