<svg width="32" height="32" viewBox="0 0 32 32" fill="none" xmlns="http://www.w3.org/2000/svg">
<path d="M0 10C0 4.47715 4.47715 0 10 0H22C27.5228 0 32 4.47715 32 10V22C32 27.5228 27.5228 32 22 32H10C4.47715 32 0 27.5228 0 22V10Z" fill="black"/>
<path d="M3.26807 14.8396C3.26807 14.5992 3.46289 14.4044 3.70322 14.4044V14.4044C3.94355 14.4044 4.13837 14.5992 4.13837 14.8396V17.1604C4.13837 17.4007 3.94355 17.5955 3.70322 17.5955V17.5955C3.46289 17.5955 3.26807 17.4007 3.26807 17.1604V14.8396Z" fill="white"/>
<path d="M6.89438 14.4043C7.1347 14.4043 7.32953 14.5991 7.32953 14.8394V14.8394C7.32953 15.0798 7.1347 15.2746 6.89438 15.2746L3.70326 15.2746C3.46293 15.2746 3.2681 15.0798 3.2681 14.8394V14.8394C3.2681 14.5991 3.46293 14.4043 3.70326 14.4043L6.89438 14.4043Z" fill="white"/>
<path d="M5.29877 14.8395C5.29877 14.5991 5.49359 14.4043 5.73392 14.4043V14.4043C5.97425 14.4043 6.16907 14.5991 6.16907 14.8394V17.1603C6.16907 17.4006 5.97425 17.5954 5.73392 17.5954V17.5954C5.49359 17.5954 5.29877 17.4006 5.29877 17.1603V14.8395Z" fill="white"/>
<path d="M7.32953 14.8395C7.32953 14.5991 7.52435 14.4043 7.76468 14.4043V14.4043C8.00501 14.4043 8.19983 14.5991 8.19983 14.8394V17.1603C8.19983 17.4006 8.00501 17.5954 7.76468 17.5954V17.5954C7.52435 17.5954 7.32953 17.4006 7.32953 17.1603V14.8395Z" fill="white"/>
<path d="M23.8654 14.8396C23.8654 14.5992 24.0602 14.4044 24.3005 14.4044V14.4044C24.5408 14.4044 24.7357 14.5992 24.7357 14.8396V17.1604C24.7357 17.4007 24.5408 17.5955 24.3005 17.5955V17.5955C24.0602 17.5955 23.8654 17.4007 23.8654 17.1604V14.8396Z" fill="white"/>
<path d="M27.9268 14.8394C27.9268 14.5991 28.1216 14.4043 28.3619 14.4043V14.4043C28.6022 14.4043 28.7971 14.5991 28.7971 14.8394V18.9009C28.7971 19.1412 28.6022 19.336 28.3619 19.336V19.336C28.1216 19.336 27.9268 19.1412 27.9268 18.9009V14.8394Z" fill="white"/>
<path d="M28.3619 16.7252C28.6022 16.7252 28.7971 16.92 28.7971 17.1604V17.1604C28.7971 17.4007 28.6022 17.5955 28.3619 17.5955L25.1708 17.5955C24.9305 17.5955 24.7356 17.4007 24.7356 17.1604V17.1604C24.7356 16.92 24.9305 16.7252 25.1708 16.7252L28.3619 16.7252Z" fill="white"/>
<path d="M27.4916 18.4658C27.7319 18.4658 27.9268 18.6606 27.9268 18.901V18.901C27.9268 19.1413 27.7319 19.3361 27.4916 19.3361L25.1708 19.3361C24.9305 19.3361 24.7356 19.1413 24.7356 18.901V18.901C24.7356 18.6606 24.9305 18.4658 25.1708 18.4658L27.4916 18.4658Z" fill="white"/>
<path fill-rule="evenodd" clip-rule="evenodd" d="M10.3756 14.4044C9.49439 14.4044 8.78003 15.1188 8.78003 16C8.78003 16.8812 9.49439 17.5955 10.3756 17.5955H16.1776C17.0588 17.5955 17.7732 16.8812 17.7732 16C17.7732 15.1188 17.0588 14.4044 16.1776 14.4044H10.3756ZM10.3756 15.2747C9.97504 15.2747 9.65033 15.5994 9.65033 16C9.65033 16.4005 9.97504 16.7252 10.3756 16.7252H16.1776C16.5782 16.7252 16.9029 16.4005 16.9029 16C16.9029 15.5994 16.5782 15.2747 16.1776 15.2747H10.3756Z" fill="#00FF99"/>
<path d="M22.4148 14.8396C22.4148 14.5992 22.6096 14.4044 22.8499 14.4044V14.4044C23.0903 14.4044 23.2851 14.5992 23.2851 14.8396V17.1604C23.2851 17.4007 23.0903 17.5955 22.8499 17.5955V17.5955C22.6096 17.5955 22.4148 17.4007 22.4148 17.1604V14.8396Z" fill="white"/>
<path d="M22.4148 13.099C22.4148 12.8586 22.6096 12.6638 22.8499 12.6638V12.6638C23.0903 12.6638 23.2851 12.8586 23.2851 13.099V15.4198C23.2851 15.6601 23.0903 15.8549 22.8499 15.8549V15.8549C22.6096 15.8549 22.4148 15.6601 22.4148 15.4198V13.099Z" fill="white"/>
<path fill-rule="evenodd" clip-rule="evenodd" d="M19.949 14.4044C19.0677 14.4044 18.3534 15.1188 18.3534 16C18.3534 16.8812 19.0677 17.5955 19.949 17.5955H21.6896C22.5708 17.5955 23.2851 16.8812 23.2851 16C23.2851 15.1188 22.5708 14.4044 21.6896 14.4044H19.949ZM19.9489 15.2747C19.5484 15.2747 19.2237 15.5994 19.2237 16C19.2237 16.4005 19.5484 16.7252 19.9489 16.7252H21.6896C22.0901 16.7252 22.4148 16.4005 22.4148 16C22.4148 15.5994 22.0901 15.2747 21.6896 15.2747H19.9489Z" fill="white"/>
</svg>
