<svg width="96" height="214" viewBox="0 0 96 214" fill="none" xmlns="http://www.w3.org/2000/svg">
<mask id="mask0_2459_2183" style="mask-type:luminance" maskUnits="userSpaceOnUse" x="0" y="0" width="94" height="214">
<path d="M93.8454 0.320068H0V214H93.8454V0.320068Z" fill="white"/>
</mask>
<g mask="url(#mask0_2459_2183)">
<path d="M102.707 179.188C114.567 175.506 121.19 162.906 117.509 151.045L74.5649 164.386C78.2461 176.246 90.8466 182.869 102.707 179.188Z" fill="#36423C"/>
<path d="M117.653 152.92L75.584 165.991L76.8431 170.038L77.2275 169.913L79.467 173.017C79.467 173.017 82.7156 169.038 92.0675 165.309L102.361 162.108C111.944 159.129 118.258 161.455 118.258 161.455L118.441 157.11L118.902 156.966L117.643 152.92H117.653Z" fill="#0A2318"/>
<path d="M103.073 180.524C105.937 179.61 108.887 178.38 111.108 176.304C113.328 174.228 114.991 171.662 116.557 169.24C120.027 163.867 120.479 157.043 118.662 151.007C118.508 150.498 118.037 150.123 117.499 150.123C116.009 150.123 114.645 150.325 113.309 151.007C111.867 151.747 110.531 152.401 108.945 152.814C107.638 153.16 106.292 153.295 104.966 153.573C103.303 153.929 101.66 154.477 100.074 155.111C94.6049 157.302 88.8093 158.533 83.1482 160.176C79.9764 161.099 76.8335 161.647 74.0943 163.559C73.6714 163.857 73.3638 164.386 73.5464 164.915C74.4883 167.779 76.2761 170.201 78.0542 172.604C79.8323 175.007 82.1198 177.015 84.7245 178.726C89.9819 182.167 97.2 182.282 103.082 180.524C104.562 180.081 103.928 177.765 102.448 178.207C97.1423 179.793 90.6835 179.755 85.9451 176.65C83.6384 175.141 81.6584 173.45 80.0149 171.22C78.3713 168.99 76.7182 166.847 75.8724 164.271L75.3245 165.626C76.3626 164.905 77.391 164.252 78.6116 163.915C80.0726 163.521 81.5239 163.165 82.9752 162.733C85.8202 161.878 88.7036 160.984 91.587 160.272C94.4704 159.561 97.0847 158.936 99.7278 157.841C102.371 156.745 105.11 155.995 107.974 155.486C109.781 155.159 111.588 154.631 113.222 153.794C114.722 153.025 115.769 152.526 117.509 152.526L116.346 151.641C117.999 157.101 117.634 163.156 114.491 168.019C113.126 170.134 111.598 172.383 109.839 174.18C107.859 176.208 105.091 177.352 102.438 178.188C100.968 178.659 101.602 180.975 103.073 180.504V180.524Z" fill="#425B4F"/>
<path d="M84.8298 121.673C64.9919 127.834 53.4679 148.181 57.9468 168.096C58.3312 169.807 60.1285 170.797 61.8009 170.278L131.358 148.662C133.031 148.143 133.953 146.307 133.3 144.683C125.697 125.729 104.677 115.503 84.8394 121.664L84.8298 121.673Z" fill="#0A2318"/>
<path d="M121.421 150.229C118.797 151.055 116.288 152.16 113.645 152.939C111.002 153.717 108.503 154.236 106.033 155.226C101.275 157.13 96.335 158.927 91.3083 159.994C88.7324 160.542 86.3488 161.464 83.9268 162.473C81.5047 163.483 78.9481 164.069 76.4491 164.819C73.9502 165.568 71.4608 166.097 68.9907 166.818C67.6739 167.202 66.3572 167.625 65.0404 168C63.7909 168.356 62.4069 169.019 61.1286 169.153C59.2736 169.346 59.1198 167.375 58.7834 166.039C58.3028 164.127 57.9472 162.291 57.8799 160.311C57.8223 158.542 57.7742 156.707 58.0433 154.948C58.3125 153.189 59.1775 151.545 59.7446 149.854C60.2828 148.287 60.4942 146.644 60.8883 145.038C61.34 143.183 62.2435 141.54 63.2527 139.925C65.1942 136.801 67.3568 133.678 70.1152 131.227C72.8737 128.776 76.0358 126.844 79.4094 125.22C81.0145 124.451 82.7253 123.98 84.4362 123.47C86.147 122.961 87.7521 122.269 89.4341 121.74C93.0383 120.606 97.1328 120.587 100.862 120.952C102.602 121.125 104.351 121.375 105.985 122.01C107.619 122.644 109.272 123.49 110.973 124.124C114.76 125.537 118.768 127.392 121.757 130.189C123.16 131.496 124.304 133.063 125.544 134.524C126.89 136.109 128.149 137.743 129.235 139.521C130.321 141.3 131.282 143.174 131.945 145.106C132.176 145.778 132.282 146.528 131.83 147.143C131.378 147.758 130.427 147.883 129.725 148.124C128.341 148.614 126.957 149.104 125.515 149.402C124.15 149.69 122.795 149.834 121.45 150.238C119.969 150.68 120.604 153.006 122.084 152.555C123.381 152.16 124.669 152.016 125.986 151.747C127.389 151.468 128.754 151.007 130.1 150.527C131.522 150.017 133.031 149.719 133.896 148.345C134.675 147.105 134.694 145.596 134.175 144.25C132.772 140.646 130.898 137.34 128.495 134.312C126.092 131.285 123.727 128.324 120.488 126.21C118.854 125.143 117.134 124.105 115.356 123.288C113.578 122.471 111.732 121.913 109.954 121.145C108.176 120.376 106.533 119.491 104.668 119.097C102.803 118.703 100.814 118.501 98.882 118.405C94.8549 118.194 90.722 118.674 86.9447 120.087C85.0801 120.789 83.1771 121.298 81.2932 121.913C79.4094 122.529 77.6121 123.413 75.8436 124.336C68.8657 127.94 63.4545 134.081 59.8791 141.011C58.9853 142.741 58.5431 144.529 58.1587 146.432C57.7742 148.335 57.1495 149.979 56.4863 151.738C55.1792 155.217 55.1888 159.379 55.7078 163.031C55.9769 164.944 56.3806 167.077 57.063 168.884C57.5724 170.239 58.7354 171.249 60.1674 171.499C61.686 171.758 63.2046 171.037 64.6367 170.624C65.8862 170.259 67.1357 169.903 68.3852 169.519C73.979 167.798 79.89 166.837 85.282 164.492C87.8578 163.377 90.4625 162.675 93.1825 162.041C95.9025 161.407 98.6898 160.388 101.419 159.532C104.332 158.619 107.061 157.303 109.993 156.437C112.751 155.621 115.548 154.986 118.239 153.939C119.518 153.439 120.786 152.949 122.094 152.545C123.564 152.084 122.939 149.758 121.459 150.229H121.421Z" fill="#00FF99"/>
<path d="M63.4639 147.585C64.2232 150.036 63.9157 152.756 62.8103 154.861C61.705 156.966 59.4656 158.216 57.0147 158.975C54.5638 159.734 51.9783 160.042 49.8734 158.936C47.7686 157.831 46.2884 155.601 45.5291 153.15C44.7698 150.699 45.1254 148.239 46.2307 146.134C47.336 144.029 49.0661 142.02 51.517 141.261C53.9679 140.502 56.4765 141.261 58.5813 142.376C60.6862 143.491 62.7046 145.135 63.4639 147.585Z" fill="#0A2318"/>
<path d="M62.3104 147.903C63.262 151.161 62.3969 154.861 59.379 156.658C56.6974 158.254 52.4684 159.417 49.7291 157.437C46.9899 155.457 45.7597 151.603 46.6055 148.47C47.4513 145.336 49.9694 142.299 53.2854 142.165C55.3134 142.078 57.2933 142.924 58.9849 143.991C60.4747 144.923 61.7434 146.201 62.3104 147.903C62.8006 149.363 65.1169 148.739 64.6268 147.268C63.3004 143.279 59.0714 140.502 55.0346 139.887C50.5077 139.195 46.7496 142.126 44.9331 146.096C43.1165 150.065 44.0488 155.188 47.2014 158.408C50.5173 161.791 55.4479 161.147 59.4174 159.35C61.4262 158.437 63.1851 156.995 64.1078 154.957C65.2034 152.545 65.3668 149.806 64.6268 147.268C64.1943 145.788 61.8779 146.413 62.3104 147.903Z" fill="#00FF99"/>
<path opacity="0.21" d="M99.9226 129.001L76.6366 136.236C74.2743 136.97 72.9544 139.48 73.6883 141.842L77.273 153.38C78.0069 155.742 80.5169 157.062 82.8791 156.328L106.165 149.093C108.527 148.359 109.847 145.849 109.113 143.487L105.529 131.949C104.795 129.587 102.285 128.267 99.9226 129.001Z" fill="#00FF99"/>
<path d="M105.927 148.191C104.562 148.604 103.217 148.71 101.823 148.95C100.266 149.219 98.7475 149.786 97.2385 150.257C94.4512 151.122 91.6927 152.055 88.9054 152.929C87.4925 153.371 86.1469 153.89 84.7821 154.457C83.4173 155.025 81.6681 155.851 80.1879 154.976C78.7077 154.102 78.4675 152.18 77.7562 150.699C77.045 149.219 76.4491 147.931 75.9781 146.403C75.5648 145.086 75.1515 143.77 74.7383 142.453C74.4787 141.626 74.2 140.848 74.5172 140.002C74.8344 139.156 75.5744 138.474 76.3722 138.06C77.6313 137.417 79.1691 137.119 80.5243 136.696C82.0717 136.215 83.6384 135.783 85.1185 135.11C86.4641 134.495 87.7136 133.889 89.1457 133.457C90.4144 133.072 91.6927 132.774 92.9614 132.409C94.4608 131.986 95.9409 131.496 97.4211 130.987C98.7667 130.525 100.372 129.699 101.813 129.987C103.918 130.41 104.428 132.409 104.908 134.197C105.37 135.888 105.783 137.59 106.369 139.252C107.311 141.934 110.06 146.711 105.918 148.181C104.466 148.691 105.091 151.017 106.552 150.498C108.282 149.882 109.589 148.623 110.223 146.893C110.925 144.99 110.444 143.193 109.752 141.367C109.109 139.675 108.436 138.022 107.936 136.273C107.455 134.629 107.148 132.918 106.542 131.313C105.898 129.612 104.495 128.276 102.746 127.747C100.997 127.219 99.1896 127.853 97.4595 128.439C94.2301 129.535 90.9334 130.352 87.6944 131.4C86.1277 131.909 84.7341 132.765 83.1963 133.322C81.6584 133.88 80.0053 134.341 78.4194 134.841C76.5644 135.427 74.6614 135.898 73.335 137.436C72.0086 138.974 71.7299 140.79 72.3066 142.703C72.8064 144.337 73.335 145.971 73.8444 147.605C74.3826 149.335 75.2669 150.815 75.9397 152.468C76.699 154.342 77.218 156.091 79.121 157.129C81.0241 158.167 82.783 157.754 84.6476 157.072C88.1942 155.765 91.7312 154.477 95.345 153.352C97.152 152.795 98.9589 152.208 100.775 151.67C102.592 151.132 104.658 151.074 106.562 150.507C108.042 150.065 107.407 147.749 105.927 148.191Z" fill="#00FF99"/>
<path d="M84.6953 151.449C85.0221 148.258 85.3393 145.058 85.6853 141.867L85.9544 139.339L83.9072 140.185C85.9833 142.078 88.0593 143.981 90.1354 145.875C91.2791 146.913 92.9803 145.221 91.8366 144.173C89.7605 142.28 87.6845 140.377 85.6084 138.483C84.7914 137.734 83.6669 138.31 83.5612 139.329C83.2152 142.53 82.8692 145.73 82.552 148.931C82.4655 149.767 82.379 150.603 82.3021 151.44C82.2348 152.084 82.898 152.641 83.5035 152.641C84.2051 152.641 84.6377 152.084 84.7049 151.44L84.6953 151.449Z" fill="#00FF99"/>
<path d="M101.9 145.74C100.977 144.241 100.054 142.751 99.1221 141.251C98.334 139.973 97.2575 138.945 96.2291 137.839C95.6524 137.224 95.0853 136.6 94.5086 135.984C93.8839 135.312 92.7401 135.667 92.4999 136.513C91.8559 138.829 91.2023 141.146 90.5584 143.462C90.4623 143.798 90.3757 144.125 90.2796 144.462C89.8663 145.951 92.1827 146.586 92.596 145.096C93.2399 142.78 93.8935 140.463 94.5375 138.147C94.6336 137.811 94.7201 137.484 94.8162 137.147L92.8074 137.676C93.9896 138.954 95.1814 140.242 96.3636 141.521C96.4597 141.617 96.5462 141.722 96.6424 141.819C96.8634 142.049 96.6039 141.847 96.5751 141.703C96.6135 141.876 96.8154 142.097 96.9115 142.241L98.5454 144.885C98.9683 145.577 99.4008 146.259 99.8237 146.951C100.631 148.268 102.717 147.057 101.9 145.74Z" fill="#00FF99"/>
<path d="M32.623 43.6187L83.5181 27.8056C104.069 21.4205 125.94 32.9226 132.325 53.4733L145.84 96.9705C146.975 100.624 144.934 104.519 141.272 105.656L29.1466 140.494C25.4935 141.629 21.5985 139.588 20.4607 135.926L6.94611 92.4286C0.560988 71.8778 12.0631 50.0066 32.6139 43.6215L32.623 43.6187Z" fill="#0A2318"/>
<path d="M15.3591 122.327C15.8012 123.768 16.0896 125.21 16.4067 126.671C16.7624 128.343 17.3294 129.958 17.7812 131.602C18.5981 134.591 19.0979 137.916 21.4816 140.127C22.7887 141.338 24.4034 142.02 26.1719 142.165C28.0846 142.318 29.8146 141.665 31.6215 141.175C34.4953 140.387 37.3115 139.675 39.9546 138.253C42.7419 136.753 45.856 136.571 48.8355 135.687C51.815 134.802 54.8811 133.428 57.9951 132.534C63.81 130.862 69.6537 129.257 75.4398 127.478C81.2258 125.7 87.0984 123.499 93.0574 121.942C96.1811 121.125 99.0549 119.741 102.131 118.79C105.206 117.838 108.099 116.848 111.127 116.031C113.943 115.272 116.74 114.445 119.566 113.705C122.728 112.869 125.582 111.351 128.696 110.428C130.071 110.015 131.474 109.803 132.877 109.496C134.559 109.121 136.203 108.554 137.837 108.015C139.24 107.554 140.701 107.179 142.075 106.631C143.632 106.016 144.853 104.873 145.747 103.469C146.727 101.931 147.314 100.096 147.15 98.2599C147.006 96.6259 146.333 95.0305 145.814 93.483C144.872 90.6381 144.027 87.7546 143.142 84.8905C142.2 81.8533 140.96 78.893 140.23 75.7885C139.567 72.9724 138.692 70.2908 137.721 67.5612C135.52 61.3522 134.377 54.7877 131.762 48.7133C130.936 46.791 129.946 44.9168 128.956 43.0714C128.331 41.8988 127.668 40.8992 126.716 39.9573C124.083 37.3334 121.296 34.6711 118.287 32.4797C116.596 31.2494 114.789 30.1825 113.001 29.1061C111.213 28.0296 109.262 27.0973 107.148 26.6359C105.033 26.1746 103.015 25.8766 100.958 25.4345C98.9011 24.9924 96.6905 24.6464 94.5087 24.8002C92.327 24.954 89.9914 25.4249 87.7231 25.5787C85.6374 25.7229 83.6959 26.0016 81.716 26.684C78.8903 27.6548 76.1222 28.6928 73.2388 29.5194C71.5856 29.9903 69.9132 30.4517 68.3274 31.1148C66.9337 31.6915 65.6266 32.3643 64.1753 32.8161C62.7239 33.2678 61.3495 33.4024 59.8982 33.6522C58.197 33.9406 56.5534 34.5461 54.9099 35.0555C52.0842 35.9301 49.268 36.8528 46.4423 37.7659C43.2705 38.7847 40.2045 40.1784 36.9847 41.0146C35.6775 41.351 34.3416 41.5912 33.0344 41.9661C31.0737 42.5332 29.3437 43.4462 27.5944 44.4843C25.8451 45.5223 23.9517 46.445 22.2216 47.5983C20.6165 48.6652 19.0787 49.8186 17.4544 50.8566C14.1673 52.9519 11.4761 56.2197 9.59228 59.6222C8.63115 61.3618 8.06408 63.2937 7.324 65.1295C6.48781 67.2152 5.60357 69.2816 5.05572 71.473C3.07578 79.46 3.76779 88.4755 6.76654 96.1069C7.86224 98.8942 8.61192 101.71 9.28472 104.613C10.0056 107.689 11.3127 110.457 12.3892 113.398C13.4657 116.339 14.4076 119.318 15.3399 122.308C15.8012 123.778 18.1176 123.153 17.6562 121.673C16.7528 118.751 15.8108 115.839 14.7824 112.956C13.754 110.072 12.4469 107.371 11.7068 104.382C11.0148 101.585 10.3996 98.827 9.352 96.1262C8.00641 92.6757 7.07411 89.2252 6.64159 85.5344C6.1418 81.3054 6.33403 76.7016 7.27594 72.5495C7.76612 70.4061 8.56387 68.3685 9.40967 66.3405C10.1401 64.572 10.6784 62.6978 11.5818 61.0062C12.4853 59.3146 13.7925 57.5942 15.09 56.066C16.3875 54.5378 17.8004 53.4709 19.4824 52.404C21.0779 51.3948 22.5484 50.2126 24.1343 49.2034C25.8163 48.1366 27.604 47.2523 29.3244 46.2431C31.0449 45.2339 32.65 44.5323 34.5242 44.0421C35.7737 43.7154 37.052 43.4943 38.2918 43.1387C41.3771 42.264 44.3374 40.9665 47.3842 39.9669C50.1042 39.0827 52.8146 38.208 55.5443 37.3622C57.1013 36.8817 58.6487 36.3146 60.2538 36.007C61.6379 35.7475 63.0123 35.6418 64.3771 35.2477C65.8188 34.8344 67.174 34.2578 68.5292 33.6138C70.0382 32.9026 71.6529 32.4604 73.2484 31.9991C75.9876 31.2013 78.6788 30.3555 81.3508 29.3464C83.1481 28.6639 84.9166 28.1738 86.8293 28.0296C88.9438 27.8662 91.0102 27.5683 93.1055 27.3184C97.3729 26.809 101.477 27.9815 105.648 28.7601C109.82 29.5386 113.385 31.8934 116.721 34.277C119.691 36.4011 122.42 39.0538 125.006 41.6297C125.909 42.5235 126.457 43.4847 127.053 44.6092C128.052 46.5027 129.081 48.4249 129.879 50.4049C131.022 53.2498 131.849 56.2486 132.762 59.18C133.675 62.1115 134.348 65.216 135.386 68.1667C136.318 70.8098 137.212 73.4049 137.837 76.1441C138.5 79.0564 139.653 81.8244 140.547 84.6694C141.441 87.5144 142.296 90.5035 143.248 93.3965C143.671 94.6941 144.142 95.982 144.507 97.2891C145.036 99.1922 144.546 101.057 143.373 102.623C142.2 104.19 140.672 104.517 138.961 105.065C137.75 105.449 136.549 105.853 135.328 106.237C132.281 107.198 129.09 107.573 126.092 108.698C124.919 109.14 123.804 109.736 122.632 110.178C121.094 110.755 119.508 111.187 117.922 111.581C112.165 113.004 106.456 114.801 100.814 116.618C97.9208 117.55 95.22 118.838 92.2597 119.607C89.5108 120.318 86.8293 121.135 84.1477 122.067C78.3328 124.076 72.4218 125.748 66.5204 127.488C63.8196 128.286 61.1188 129.112 58.4084 129.872C55.698 130.631 52.9684 131.669 50.2484 132.649C47.24 133.735 44.0587 134.024 41.0503 135.1C39.8008 135.542 38.6859 136.206 37.5037 136.782C36.0139 137.513 34.3416 137.926 32.7461 138.349C29.7666 139.137 26.1623 140.877 23.4038 138.628C21.049 136.705 20.7319 133.264 19.9437 130.506C19.492 128.92 18.9634 127.363 18.6366 125.748C18.3579 124.364 18.0599 123 17.6466 121.644C17.1949 120.174 14.8785 120.799 15.3303 122.279L15.3591 122.327Z" fill="#00FF99"/>
<path d="M43.7276 48.5219L77.1376 38.1415C97.6883 31.7563 119.559 43.2584 125.945 63.8092L134.725 92.07C135.86 95.723 133.819 99.618 130.157 100.756L35.5264 130.158C31.8733 131.293 27.9783 129.252 26.8405 125.59L18.0599 97.3289C11.6748 76.7782 23.1768 54.907 43.7276 48.5219Z" fill="#007A40"/>
<path d="M129.734 99.2787C127.485 99.9803 125.275 100.826 123.026 101.528C120.777 102.229 118.47 102.748 116.221 103.46C113.972 104.171 111.953 105.526 109.675 106.237C107.398 106.949 105.052 107.218 102.784 107.91C100.516 108.602 98.3821 109.611 96.1234 110.313C93.8647 111.014 91.5964 111.62 89.3378 112.312C84.83 113.705 80.2454 114.868 75.7473 116.262C71.2492 117.656 66.7991 119.27 62.2914 120.674C60.0327 121.375 57.726 121.875 55.4769 122.577C53.2278 123.278 51.2287 124.268 49.0373 124.97C44.5968 126.383 40.1372 127.651 35.6679 128.968C32.8998 129.785 29.1033 128.526 27.7962 125.748C26.8254 123.682 26.7389 121.183 26.1142 119.001C24.8166 114.484 23.1923 110.082 21.6833 105.641C20.924 103.402 20.3185 101.124 19.6457 98.8654C18.6654 95.5687 17.685 92.3296 17.4255 88.8888C17.166 85.4479 17.2717 81.7379 17.9157 78.2874C18.5308 75.0292 20.0013 71.9247 21.3469 68.9163C22.6925 65.908 24.6052 63.236 26.8927 60.7275C29.1802 58.2189 31.5158 55.9987 34.3511 54.2686C37.1865 52.5386 40.1564 51.193 43.3089 50.1838C45.6156 49.4437 47.7494 48.348 50.0369 47.5887C52.3244 46.8294 54.6311 46.1951 56.9186 45.4838C59.2061 44.7726 61.7627 44.3689 64.1464 43.6288C66.53 42.8888 68.7406 41.7162 71.1338 40.9953C73.5271 40.2745 75.978 39.8516 78.3616 39.1019C79.9475 38.6021 81.5429 38.0638 83.1865 37.7755C85.0511 37.4487 86.8869 37.6698 88.7515 37.862C92.2788 38.2272 95.7101 38.16 99.1414 39.2076C100.718 39.6882 102.236 40.3129 103.764 40.928C105.379 41.5816 107.071 42.1006 108.599 42.9464C109.954 43.6961 111.031 44.7245 112.097 45.8202C113.241 47.0024 114.452 48.1173 115.596 49.2899C117.864 51.6255 119.873 54.2686 121.488 57.0944C123.103 59.9201 124.535 62.7747 125.371 65.908C125.976 68.1955 126.409 70.5118 127.255 72.7321C127.601 73.6451 128.033 74.5102 128.456 75.3944C129.062 76.6439 129.456 77.9702 129.869 79.2966C130.561 81.5265 131.349 83.7467 131.945 86.0054C132.214 86.9953 132.329 87.9757 132.445 88.9849C132.589 90.2632 132.896 91.455 133.233 92.6853C133.973 95.4533 132.445 98.3367 129.734 99.2498C128.273 99.74 128.898 102.066 130.369 101.566C133.05 100.663 135.136 98.4521 135.703 95.6263C135.991 94.1654 135.751 92.8198 135.357 91.4069C135.021 90.1959 134.867 89.0233 134.723 87.7835C134.425 85.3037 133.531 82.9297 132.781 80.5557C132.031 78.1817 131.32 75.7885 130.205 73.5298C129.09 71.2711 128.543 68.9356 127.995 66.5519C127.303 63.5436 126.178 60.8332 124.746 58.1035C121.622 52.1829 117.326 47.1466 112.347 42.6869C109.829 40.4282 106.648 39.4959 103.582 38.2465C100.237 36.8816 96.8731 35.9493 93.2592 35.7187C91.4426 35.6033 89.6453 35.5264 87.8384 35.3342C85.8873 35.1324 84.0323 35.1228 82.1004 35.5168C79.0824 36.132 76.2182 37.3238 73.2099 37.9581C70.7205 38.4867 68.3657 39.3325 66.0398 40.361C63.7138 41.3894 61.2822 41.8411 58.8409 42.4082C56.3996 42.9753 53.9583 43.8307 51.5362 44.5611C50.1714 44.9744 48.8066 45.3877 47.4899 45.9548C46.423 46.4161 45.3946 46.9255 44.2989 47.31C41.0598 48.4153 37.9842 49.4821 34.9566 51.1161C31.929 52.75 29.3148 54.7492 26.9215 57.152C24.5283 59.5549 22.2216 62.073 20.578 64.9949C18.9345 67.9168 17.6273 71.1462 16.4932 74.2795C15.2533 77.6819 14.9746 81.3823 14.8977 84.9769C14.8208 88.5716 15.2629 92.32 16.2337 95.8858C17.56 100.749 19.1844 105.488 20.7991 110.245C21.5872 112.581 22.3177 114.936 23.0578 117.29C23.7978 119.645 24.2496 122.067 24.8743 124.47C25.2491 125.893 25.672 127.209 26.6524 128.324C27.5655 129.362 28.7765 130.179 30.026 130.766C31.4869 131.458 33.0824 131.823 34.6971 131.621C36.0523 131.448 37.3787 130.91 38.7051 130.564C41.0695 129.929 43.3954 129.218 45.731 128.488C48.0665 127.757 50.4598 127.084 52.7377 126.114C57.2646 124.191 62.1856 123.269 66.8279 121.664C76.0837 118.463 85.5605 115.926 94.9508 113.157C97.3344 112.456 99.5931 111.514 101.929 110.697C104.264 109.88 106.725 109.524 109.128 108.871C110.492 108.506 111.848 108.054 113.107 107.419C114.087 106.929 115 106.391 116.038 106.016C118.393 105.18 120.844 104.671 123.227 103.95C125.611 103.229 127.966 102.316 130.359 101.566C131.83 101.105 131.205 98.7885 129.725 99.2498L129.734 99.2787Z" fill="#00FF99"/>
<path d="M70.4803 102.883C65.7419 104.353 65.5112 103.613 60.7728 105.093C58.4757 105.805 56.3612 104.815 55.6499 102.508C54.9579 100.291 54.2691 98.0708 53.5835 95.8473C52.5454 92.5122 52.5935 92.5026 51.5651 89.1674C50.5367 85.8323 50.3444 85.8899 49.3064 82.5548C48.2684 79.2196 48.0762 79.2773 47.0381 75.9422C46.3269 73.6451 47.6629 70.9827 49.96 70.2715C54.6984 68.8009 54.7849 69.07 59.5233 67.5899C61.8204 66.8786 64.2809 68.0609 64.9922 70.358C66.0302 73.6835 65.8284 73.7508 66.8664 77.0763C67.9044 80.4018 68.0101 80.373 69.0482 83.7082C70.0862 87.0433 69.7498 87.149 70.7878 90.4842C71.8259 93.8193 72.4218 93.6367 73.4598 96.9718C74.171 99.269 72.7966 102.162 70.4995 102.883H70.4803Z" fill="#00FF91"/>
<path d="M95.4122 94.8671C90.6738 96.3376 90.6258 96.1934 85.8874 97.664C83.5903 98.3752 81.0625 97.1353 80.3512 94.8286C79.3132 91.5031 79.4189 91.4646 78.3809 88.1391C77.3429 84.8136 77.4967 84.7559 76.4586 81.4304C75.4206 78.1048 75.1515 78.1817 74.1134 74.8466C73.0754 71.5114 73.4214 71.4057 72.393 68.0706C71.6818 65.7734 72.6525 63.1976 74.9592 62.4767C79.6976 61.0062 79.8803 61.5925 84.6187 60.122C86.9158 59.4107 89.1168 60.3526 89.8376 62.6497C90.8757 65.9753 90.9814 65.9464 92.0194 69.272C93.0575 72.5975 92.846 72.6744 93.884 75.9999C94.9221 79.3255 94.9509 79.3255 95.9889 82.6606C97.027 85.9958 97.4883 85.8516 98.5263 89.1867C99.2376 91.4839 97.7286 94.1462 95.4219 94.8575L95.4122 94.8671Z" fill="#00FF91"/>
<path d="M98.5164 162.127C99.391 164.117 100.083 166.039 100.131 168.086C100.179 170.134 99.5064 172.142 98.7567 174.094C98.007 176.045 97.4111 178.13 95.9502 179.668C94.4893 181.206 92.6823 182.263 90.6928 183.138C88.7032 184.012 86.6271 184.531 84.5895 184.58C82.5519 184.628 80.274 184.407 78.3325 183.657C76.391 182.907 74.661 181.542 73.1328 180.081C71.6046 178.62 70.1436 177.063 69.269 175.074C68.3944 173.084 68.2887 170.883 68.2406 168.846C68.1925 166.808 68.4713 164.617 69.221 162.675C69.9706 160.734 71.1048 158.898 72.5657 157.36C74.0266 155.822 75.6702 154.515 77.6501 153.631C79.6301 152.747 81.783 152.41 83.8302 152.362C85.8775 152.314 87.9151 153.102 89.8662 153.852C91.8173 154.602 93.5666 155.592 95.1044 157.053C96.6422 158.513 97.661 160.147 98.5356 162.137L98.5164 162.127Z" fill="#00FF91"/>
<path d="M97.4787 162.733C98.1515 164.28 98.7858 165.943 98.9108 167.644C99.0165 169.211 98.6705 170.73 98.1707 172.21C97.2288 174.987 96.3349 177.967 93.9609 179.86C89.3186 183.532 82.014 184.839 76.8335 181.542C74.4402 180.024 71.999 177.707 70.6534 175.189C69.3078 172.671 69.1636 168.952 69.5769 166.049C70.4227 160.08 75.286 154.852 81.2355 153.794C84.686 153.179 87.9346 154.102 91.0102 155.659C94.0859 157.216 96.085 159.648 97.4787 162.733C98.113 164.136 100.189 162.916 99.5548 161.522C98.1419 158.408 96.0466 155.774 93.0671 154.044C90.0876 152.314 86.4352 150.969 82.9944 151.19C75.93 151.641 69.7595 156.514 67.7123 163.329C66.7031 166.674 66.6743 170.816 67.6546 174.171C68.635 177.525 71.2589 180.245 73.9212 182.369C79.7361 187.021 87.8289 186.617 93.9705 182.763C95.518 181.792 96.9597 180.591 97.9304 179.024C98.9492 177.381 99.5451 175.43 100.208 173.632C100.872 171.835 101.41 169.845 101.323 167.865C101.227 165.626 100.439 163.55 99.5548 161.522C98.9396 160.109 96.8636 161.33 97.4787 162.733Z" fill="#007A40"/>
<path d="M78.996 166.135C79.5535 167.404 79.4382 168.961 78.1599 169.528C76.8815 170.095 75.065 169.394 74.4979 168.125C73.9405 166.856 74.8824 165.559 76.1511 164.992C77.4198 164.425 78.429 164.867 78.9864 166.135H78.996Z" fill="#007A40"/>
<path d="M87.367 162.435C87.9245 163.704 87.54 165.318 86.2617 165.885C84.9834 166.452 83.1188 165.837 82.5613 164.559C82.0039 163.29 82.7343 161.339 84.0127 160.772C85.291 160.205 86.8096 161.157 87.3766 162.425L87.367 162.435Z" fill="#007A40"/>
<path d="M77.035 175.776C78.1115 176.833 79.3417 177.957 80.8411 178.332C82.2155 178.669 83.5804 178.351 84.8683 177.852C87.348 176.881 90.1257 175.833 91.1926 173.19C91.7308 171.854 91.8077 170.326 91.9711 168.913C92.0768 167.971 91.0676 167.068 90.1641 167.106C89.0973 167.154 88.4725 167.904 88.3572 168.913C88.3092 169.346 88.2611 169.778 88.2034 170.211C88.2611 169.73 88.1842 170.336 88.1746 170.422C88.1458 170.585 88.1169 170.749 88.0881 170.922C88.04 171.181 87.9824 171.431 87.9055 171.681C87.867 171.806 87.819 171.931 87.7805 172.056C87.694 172.344 88.0112 171.652 87.7805 172.056C87.7325 172.143 87.6748 172.239 87.6267 172.325C87.4249 172.69 87.5595 172.248 87.6748 172.287C87.5883 172.258 87.2903 172.825 87.1462 172.806C87.3768 172.623 87.4249 172.594 87.2711 172.71C87.2135 172.748 87.1558 172.786 87.0981 172.835C87.002 172.892 86.9059 172.959 86.8098 173.017C86.5214 173.19 86.2139 173.354 85.9063 173.507C85.5219 173.7 85.1278 173.873 84.7337 174.046C84.5607 174.122 84.3781 174.199 84.2051 174.276C84.4742 174.161 83.8879 174.401 83.8303 174.42C83.465 174.565 83.0998 174.69 82.7153 174.795C82.5904 174.824 82.4654 174.853 82.3405 174.882C82.0329 174.959 82.7442 174.891 82.2348 174.891C82.0906 174.891 81.9368 174.891 81.7926 174.891C81.6004 174.872 81.6485 174.882 81.9464 174.911C81.8791 174.901 81.8023 174.882 81.735 174.863C81.61 174.814 81.1679 174.613 81.6292 174.853C81.5235 174.795 81.4082 174.747 81.3025 174.69C81.1487 174.603 81.0045 174.507 80.8603 174.411C80.7834 174.353 80.7066 174.295 80.6297 174.238C80.7931 174.363 80.8027 174.363 80.6297 174.238C80.274 173.911 79.9088 173.594 79.5628 173.257C78.8708 172.575 77.7078 172.565 77.0158 173.257C76.3238 173.949 76.3142 175.122 77.0158 175.804L77.035 175.776Z" fill="#007A40"/>
</g>
<path d="M94.086 6.64441C94.086 10.1429 93.6631 10.1429 93.6631 13.6511C93.6631 17.1592 93.7015 17.1592 93.7015 20.6578C93.7015 24.1563 93.6054 24.1659 93.6054 27.6645C93.6054 31.163 93.9995 31.163 93.9995 34.6712C93.9995 38.1793 94.0668 38.1793 94.0668 41.6779C94.0668 45.1764 94.0956 45.186 94.0956 48.6845C94.0956 52.1831 93.7496 52.1927 93.7496 55.6912C93.7496 59.1898 94.0956 59.1994 94.0956 62.6979C94.0956 66.1965 93.7784 66.2061 93.7784 69.7046C93.7784 73.2031 93.567 73.2128 93.567 76.7113C93.567 80.2098 93.4805 80.2194 93.4805 83.718C93.4805 87.2165 93.7111 87.2261 93.7111 90.7343C93.7111 94.2424 93.6631 94.2424 93.6631 97.741C93.6631 101.24 93.5766 101.249 93.5766 104.757C93.5766 108.265 93.6535 108.265 93.6535 111.774C93.6535 115.282 93.5285 115.282 93.5285 118.79C93.5285 122.298 94.0956 122.298 94.0956 125.806C94.0956 129.314 93.788 129.314 93.788 132.822C93.788 136.331 93.8265 136.331 93.8265 139.839C93.8265 143.347 94.1244 143.347 94.1244 146.845C94.1244 150.344 94.2205 150.354 94.2205 153.862C94.2205 157.37 93.6535 157.37 93.6535 160.878C93.6535 164.386 94.0187 164.386 94.0187 167.894C94.0187 171.403 93.7015 171.403 93.7015 174.911C93.7015 178.419 93.5574 178.419 93.5574 181.927C93.5574 185.435 94.0956 185.435 94.0956 188.943C94.0956 192.451 94.2398 192.451 94.2398 195.96C94.2398 199.468 93.8553 199.468 93.8553 202.976" fill="#0A2318"/>
<path d="M92.884 6.64427C92.884 8.1052 92.7206 9.51807 92.586 10.9694C92.413 12.7379 92.4611 14.516 92.4803 16.2845C92.5092 19.3409 92.4803 22.3877 92.4227 25.4345C92.365 28.6831 92.7879 31.8837 92.7975 35.1228C92.8071 38.3618 92.8552 41.5912 92.884 44.8206C92.8936 46.5315 92.9417 48.2423 92.884 49.9435C92.8359 51.3275 92.6437 52.702 92.586 54.086C92.4323 57.5653 93.0186 60.9966 92.8648 64.4663C92.5957 70.7329 92.2977 76.9899 92.2881 83.2757C92.2881 86.6493 92.5476 90.0037 92.5092 93.3869C92.4707 96.4433 92.4515 99.4901 92.4034 102.547C92.3458 105.987 92.4995 109.419 92.4611 112.85C92.4323 115.993 92.1343 119.155 92.6149 122.279C93.0954 125.402 92.7398 128.199 92.6341 131.217C92.5091 134.649 92.538 138.176 92.6822 141.607C92.8071 144.683 92.932 147.758 93.0089 150.834C93.057 152.555 93.1243 154.294 92.9513 156.005C92.8071 157.418 92.5188 158.792 92.4899 160.224C92.413 163.531 92.9801 166.789 92.7879 170.105C92.6053 173.113 92.5284 176.122 92.4323 179.13C92.3746 180.898 92.3169 182.696 92.5284 184.455C92.6918 185.877 92.9128 187.252 92.9321 188.693C92.9609 191.99 93.2685 195.325 92.9705 198.612C92.8359 200.063 92.7014 201.486 92.6918 202.947C92.6918 204.494 95.085 204.494 95.0946 202.947C95.1138 199.708 95.5463 196.536 95.4406 193.287C95.3445 190.27 95.2676 187.319 94.912 184.32C94.5371 181.071 94.912 177.688 94.9408 174.42C94.9697 171.152 95.431 168.048 95.1234 164.819C94.9697 163.214 94.8543 161.628 94.912 160.013C94.9504 158.658 95.2292 157.341 95.3733 155.995C95.7097 152.651 95.431 149.123 95.3637 145.769C95.2964 142.616 95.0946 139.473 95.0562 136.321C95.0177 133.168 95.2388 130.15 95.3253 127.056C95.4214 123.682 94.7294 120.395 94.787 117.021C94.8447 113.936 94.912 110.87 94.8447 107.785C94.7005 101.191 95.2484 94.5595 94.8832 87.9661C94.5179 81.3727 94.8832 75.0772 95.0273 68.6376C95.1042 65.4659 95.4598 62.371 95.1523 59.1896C94.8447 56.0083 95.2388 52.923 95.3157 49.7417C95.4022 46.32 95.3349 42.8695 95.2868 39.4383C95.2484 36.478 95.2676 33.5273 94.9697 30.5766C94.6525 27.3568 94.9312 24.0985 94.9408 20.8691C94.9504 17.6397 94.7005 14.2276 95.0177 10.9502C95.1619 9.49885 95.3157 8.08598 95.3157 6.62505C95.3157 5.07762 92.9224 5.07762 92.9128 6.62505L92.884 6.64427Z" fill="#00FF99"/>
</svg>
