<svg width="113" height="135" viewBox="0 0 113 135" fill="none" xmlns="http://www.w3.org/2000/svg">
<path d="M73.1678 68.2877L72.1876 66.5444C71.4856 66.9391 71.0888 67.7164 71.1809 68.5165C71.273 69.3165 71.836 69.9833 72.6093 70.2082L73.1678 68.2877ZM39.6746 68.2877L40.233 70.2082C41.0064 69.9833 41.5694 69.3165 41.6615 68.5165C41.7536 67.7164 41.3568 66.9391 40.6548 66.5444L39.6746 68.2877ZM88.9581 37.7069C88.9581 50.12 82.186 60.9227 72.1876 66.5444L74.148 70.0311C85.37 63.7214 92.9581 51.6064 92.9581 37.7069H88.9581ZM56.4212 4.74877C74.3681 4.74877 88.9581 19.4817 88.9581 37.7069H92.9581C92.9581 17.3184 76.6228 0.748768 56.4212 0.748768V4.74877ZM23.8842 37.7069C23.8842 19.4817 38.4743 4.74877 56.4212 4.74877V0.748768C36.2196 0.748768 19.8842 17.3184 19.8842 37.7069H23.8842ZM40.6548 66.5444C30.6564 60.9227 23.8842 50.12 23.8842 37.7069H19.8842C19.8842 51.6064 27.4723 63.7214 38.6944 70.0311L40.6548 66.5444ZM4.50985 113.941C4.50985 93.673 19.3541 76.2794 40.233 70.2082L39.1162 66.3673C16.8434 72.8438 0.509852 91.5867 0.509852 113.941H4.50985ZM56.4212 159.956C27.5272 159.956 4.50985 139.143 4.50985 113.941H0.509852C0.509852 141.775 25.7663 163.956 56.4212 163.956V159.956ZM108.333 113.941C108.333 139.143 85.3151 159.956 56.4212 159.956V163.956C87.0761 163.956 112.333 141.775 112.333 113.941H108.333ZM72.6093 70.2082C93.4883 76.2794 108.333 93.673 108.333 113.941H112.333C112.333 91.5867 95.999 72.8438 73.7262 66.3673L72.6093 70.2082Z" fill="white"/>
</svg>
